<?xml version="1.0" encoding="UTF-8"?>
<svg xmlns="http://www.w3.org/2000/svg" xmlns:xlink="http://www.w3.org/1999/xlink" width="756pt" height="288pt" viewBox="0 0 756 288" version="1.1">
<g id="surface159">
<rect x="0" y="0" width="756" height="288" style="fill:rgb(100%,100%,100%);fill-opacity:1;stroke:none;"/>
<path style="fill:none;stroke-width:1.066978;stroke-linecap:butt;stroke-linejoin:round;stroke:rgb(98.823529%,88.627451%,27.843137%);stroke-opacity:0.8;stroke-miterlimit:10;" d="M 368.617188 135.273438 L 368.617188 159.886719 "/>
<path style="fill:none;stroke-width:1.066978;stroke-linecap:butt;stroke-linejoin:round;stroke:rgb(75.294118%,69.411765%,43.137255%);stroke-opacity:0.8;stroke-miterlimit:10;" d="M 191.488281 127.191406 L 191.488281 197.035156 "/>
<path style="fill:none;stroke-width:1.066978;stroke-linecap:butt;stroke-linejoin:round;stroke:rgb(0%,12.54902%,30.196078%);stroke-opacity:0.8;stroke-miterlimit:10;" d="M 446.464844 286.039062 L 446.464844 143.558594 "/>
<path style="fill:none;stroke-width:1.066978;stroke-linecap:butt;stroke-linejoin:round;stroke:rgb(94.509804%,85.098039%,31.764706%);stroke-opacity:0.8;stroke-miterlimit:10;" d="M 390.695312 192.011719 L 390.695312 155.257812 "/>
<path style="fill:none;stroke-width:1.066978;stroke-linecap:butt;stroke-linejoin:round;stroke:rgb(85.882353%,78.039216%,38.039216%);stroke-opacity:0.8;stroke-miterlimit:10;" d="M 308.539062 119.265625 L 308.539062 172.488281 "/>
<path style="fill:none;stroke-width:1.066978;stroke-linecap:butt;stroke-linejoin:round;stroke:rgb(99.607843%,89.411765%,27.058824%);stroke-opacity:0.8;stroke-miterlimit:10;" d="M 396.078125 175.074219 L 396.078125 154.128906 "/>
<path style="fill:none;stroke-width:1.066978;stroke-linecap:butt;stroke-linejoin:round;stroke:rgb(95.294118%,85.882353%,30.980392%);stroke-opacity:0.8;stroke-miterlimit:10;" d="M 389.488281 120.433594 L 389.488281 155.507812 "/>
<path style="fill:none;stroke-width:1.066978;stroke-linecap:butt;stroke-linejoin:round;stroke:rgb(84.705882%,77.254902%,38.823529%);stroke-opacity:0.8;stroke-miterlimit:10;" d="M 276.535156 235.195312 L 276.535156 179.199219 "/>
<path style="fill:none;stroke-width:1.066978;stroke-linecap:butt;stroke-linejoin:round;stroke:rgb(100%,90.196078%,25.882353%);stroke-opacity:0.8;stroke-miterlimit:10;" d="M 477.199219 154.285156 L 477.199219 137.113281 "/>
<path style="fill:none;stroke-width:1.066978;stroke-linecap:butt;stroke-linejoin:round;stroke:rgb(81.176471%,74.117647%,40.392157%);stroke-opacity:0.8;stroke-miterlimit:10;" d="M 575.421875 55.523438 L 575.421875 116.515625 "/>
<path style="fill:none;stroke-width:1.066978;stroke-linecap:butt;stroke-linejoin:round;stroke:rgb(72.156863%,67.058824%,43.921569%);stroke-opacity:0.8;stroke-miterlimit:10;" d="M 294.808594 249.183594 L 294.808594 175.367188 "/>
<path style="fill:none;stroke-width:1.066978;stroke-linecap:butt;stroke-linejoin:round;stroke:rgb(95.294118%,85.882353%,30.980392%);stroke-opacity:0.8;stroke-miterlimit:10;" d="M 250.773438 149.90625 L 250.773438 184.601562 "/>
<path style="fill:none;stroke-width:1.066978;stroke-linecap:butt;stroke-linejoin:round;stroke:rgb(94.901961%,85.490196%,31.372549%);stroke-opacity:0.8;stroke-miterlimit:10;" d="M 396.578125 190.21875 L 396.578125 154.023438 "/>
<path style="fill:none;stroke-width:1.066978;stroke-linecap:butt;stroke-linejoin:round;stroke:rgb(100%,90.980392%,26.27451%);stroke-opacity:0.8;stroke-miterlimit:10;" d="M 303.363281 184.78125 L 303.363281 173.574219 "/>
<path style="fill:none;stroke-width:1.066978;stroke-linecap:butt;stroke-linejoin:round;stroke:rgb(100%,91.372549%,26.666667%);stroke-opacity:0.8;stroke-miterlimit:10;" d="M 586.25 122.238281 L 586.25 114.242188 "/>
<path style="fill:none;stroke-width:1.066978;stroke-linecap:butt;stroke-linejoin:round;stroke:rgb(65.098039%,61.568627%,45.882353%);stroke-opacity:0.8;stroke-miterlimit:10;" d="M 292.230469 93.648438 L 292.230469 175.90625 "/>
<path style="fill:none;stroke-width:1.066978;stroke-linecap:butt;stroke-linejoin:round;stroke:rgb(100%,89.803922%,26.666667%);stroke-opacity:0.8;stroke-miterlimit:10;" d="M 464.363281 119.035156 L 464.363281 139.804688 "/>
<path style="fill:none;stroke-width:1.066978;stroke-linecap:butt;stroke-linejoin:round;stroke:rgb(82.745098%,75.686275%,39.607843%);stroke-opacity:0.8;stroke-miterlimit:10;" d="M 561.324219 178.183594 L 561.324219 119.472656 "/>
<path style="fill:none;stroke-width:1.066978;stroke-linecap:butt;stroke-linejoin:round;stroke:rgb(100%,90.196078%,25.882353%);stroke-opacity:0.8;stroke-miterlimit:10;" d="M 721.105469 68.054688 L 721.105469 85.960938 "/>
<path style="fill:none;stroke-width:1.066978;stroke-linecap:butt;stroke-linejoin:round;stroke:rgb(96.078431%,86.27451%,30.588235%);stroke-opacity:0.8;stroke-miterlimit:10;" d="M 419.148438 182.136719 L 419.148438 149.289062 "/>
<path style="fill:none;stroke-width:1.066978;stroke-linecap:butt;stroke-linejoin:round;stroke:rgb(95.294118%,85.882353%,30.980392%);stroke-opacity:0.8;stroke-miterlimit:10;" d="M 608.148438 144.339844 L 608.148438 109.652344 "/>
<path style="fill:none;stroke-width:1.066978;stroke-linecap:butt;stroke-linejoin:round;stroke:rgb(86.666667%,78.823529%,37.254902%);stroke-opacity:0.8;stroke-miterlimit:10;" d="M 443.539062 195.882812 L 443.539062 144.171875 "/>
<path style="fill:none;stroke-width:1.066978;stroke-linecap:butt;stroke-linejoin:round;stroke:rgb(98.039216%,88.235294%,28.627451%);stroke-opacity:0.8;stroke-miterlimit:10;" d="M 384.226562 183.707031 L 384.226562 156.613281 "/>
<path style="fill:none;stroke-width:1.066978;stroke-linecap:butt;stroke-linejoin:round;stroke:rgb(100%,89.803922%,26.666667%);stroke-opacity:0.8;stroke-miterlimit:10;" d="M 419.347656 169.496094 L 419.347656 149.246094 "/>
<path style="fill:none;stroke-width:1.066978;stroke-linecap:butt;stroke-linejoin:round;stroke:rgb(96.470588%,86.666667%,30.196078%);stroke-opacity:0.8;stroke-miterlimit:10;" d="M 563.71875 150.566406 L 563.71875 118.96875 "/>
<path style="fill:none;stroke-width:1.066978;stroke-linecap:butt;stroke-linejoin:round;stroke:rgb(100%,91.372549%,26.666667%);stroke-opacity:0.8;stroke-miterlimit:10;" d="M 402.03125 163.046875 L 402.03125 152.878906 "/>
<path style="fill:none;stroke-width:1.066978;stroke-linecap:butt;stroke-linejoin:round;stroke:rgb(90.588235%,82.352941%,34.901961%);stroke-opacity:0.8;stroke-miterlimit:10;" d="M 354.160156 118.023438 L 354.160156 162.917969 "/>
<path style="fill:none;stroke-width:1.066978;stroke-linecap:butt;stroke-linejoin:round;stroke:rgb(100%,90.980392%,26.27451%);stroke-opacity:0.8;stroke-miterlimit:10;" d="M 260.058594 171.628906 L 260.058594 182.652344 "/>
<path style="fill:none;stroke-width:1.066978;stroke-linecap:butt;stroke-linejoin:round;stroke:rgb(92.54902%,83.529412%,33.333333%);stroke-opacity:0.8;stroke-miterlimit:10;" d="M 122.027344 252.957031 L 122.027344 211.601562 "/>
<path style="fill:none;stroke-width:1.066978;stroke-linecap:butt;stroke-linejoin:round;stroke:rgb(63.137255%,60%,46.27451%);stroke-opacity:0.8;stroke-miterlimit:10;" d="M 537.171875 39.898438 L 537.171875 124.535156 "/>
<path style="fill:none;stroke-width:1.066978;stroke-linecap:butt;stroke-linejoin:round;stroke:rgb(100%,90.196078%,25.882353%);stroke-opacity:0.8;stroke-miterlimit:10;" d="M 284.140625 160.589844 L 284.140625 177.601562 "/>
<path style="fill:none;stroke-width:1.066978;stroke-linecap:butt;stroke-linejoin:round;stroke:rgb(82.352941%,75.294118%,40%);stroke-opacity:0.8;stroke-miterlimit:10;" d="M 432.710938 205.441406 L 432.710938 146.445312 "/>
<path style="fill:none;stroke-width:1.066978;stroke-linecap:butt;stroke-linejoin:round;stroke:rgb(100%,90.196078%,25.882353%);stroke-opacity:0.8;stroke-miterlimit:10;" d="M 479.308594 119.039062 L 479.308594 136.671875 "/>
<path style="fill:none;stroke-width:1.066978;stroke-linecap:butt;stroke-linejoin:round;stroke:rgb(100%,90.980392%,26.27451%);stroke-opacity:0.8;stroke-miterlimit:10;" d="M 505.515625 120.0625 L 505.515625 131.175781 "/>
<path style="fill:none;stroke-width:1.066978;stroke-linecap:butt;stroke-linejoin:round;stroke:rgb(87.843137%,79.607843%,36.862745%);stroke-opacity:0.8;stroke-miterlimit:10;" d="M 248.464844 235.183594 L 248.464844 185.085938 "/>
<path style="fill:none;stroke-width:1.066978;stroke-linecap:butt;stroke-linejoin:round;stroke:rgb(60.784314%,58.039216%,46.666667%);stroke-opacity:0.8;stroke-miterlimit:10;" d="M 648.515625 13.621094 L 648.515625 101.183594 "/>
<path style="fill:none;stroke-width:1.066978;stroke-linecap:butt;stroke-linejoin:round;stroke:rgb(100%,90.980392%,26.27451%);stroke-opacity:0.8;stroke-miterlimit:10;" d="M 650.015625 87.734375 L 650.015625 100.871094 "/>
<path style="fill:none;stroke-width:1.066978;stroke-linecap:butt;stroke-linejoin:round;stroke:rgb(99.607843%,89.411765%,27.058824%);stroke-opacity:0.8;stroke-miterlimit:10;" d="M 574.867188 94.226562 L 574.867188 116.632812 "/>
<path style="fill:none;stroke-width:1.066978;stroke-linecap:butt;stroke-linejoin:round;stroke:rgb(98.823529%,88.627451%,27.843137%);stroke-opacity:0.8;stroke-miterlimit:10;" d="M 472.679688 162.847656 L 472.679688 138.0625 "/>
<path style="fill:none;stroke-width:1.066978;stroke-linecap:butt;stroke-linejoin:round;stroke:rgb(100%,90.980392%,26.27451%);stroke-opacity:0.8;stroke-miterlimit:10;" d="M 387.019531 143.566406 L 387.019531 156.027344 "/>
<path style="fill:none;stroke-width:1.066978;stroke-linecap:butt;stroke-linejoin:round;stroke:rgb(100%,90.588235%,25.882353%);stroke-opacity:0.8;stroke-miterlimit:10;" d="M 473.878906 123.199219 L 473.878906 137.8125 "/>
<path style="fill:none;stroke-width:1.066978;stroke-linecap:butt;stroke-linejoin:round;stroke:rgb(96.470588%,86.666667%,30.196078%);stroke-opacity:0.8;stroke-miterlimit:10;" d="M 504.453125 99.066406 L 504.453125 131.398438 "/>
<path style="fill:none;stroke-width:1.066978;stroke-linecap:butt;stroke-linejoin:round;stroke:rgb(91.764706%,82.745098%,34.117647%);stroke-opacity:0.8;stroke-miterlimit:10;" d="M 548.875 164.5 L 548.875 122.082031 "/>
<path style="fill:none;stroke-width:1.066978;stroke-linecap:butt;stroke-linejoin:round;stroke:rgb(100%,91.372549%,26.666667%);stroke-opacity:0.8;stroke-miterlimit:10;" d="M 325.1875 160.917969 L 325.1875 168.996094 "/>
<path style="fill:none;stroke-width:1.066978;stroke-linecap:butt;stroke-linejoin:round;stroke:rgb(100%,90.588235%,25.882353%);stroke-opacity:0.8;stroke-miterlimit:10;" d="M 334.796875 182.515625 L 334.796875 166.980469 "/>
<path style="fill:none;stroke-width:1.066978;stroke-linecap:butt;stroke-linejoin:round;stroke:rgb(99.607843%,89.411765%,27.058824%);stroke-opacity:0.8;stroke-miterlimit:10;" d="M 353.839844 185.074219 L 353.839844 162.984375 "/>
<path style="fill:none;stroke-width:1.066978;stroke-linecap:butt;stroke-linejoin:round;stroke:rgb(96.862745%,87.058824%,29.803922%);stroke-opacity:0.8;stroke-miterlimit:10;" d="M 235.980469 156.628906 L 235.980469 187.703125 "/>
<path style="fill:none;stroke-width:1.066978;stroke-linecap:butt;stroke-linejoin:round;stroke:rgb(87.45098%,79.215686%,37.254902%);stroke-opacity:0.8;stroke-miterlimit:10;" d="M 460.917969 89.503906 L 460.917969 140.527344 "/>
<path style="fill:none;stroke-width:1.066978;stroke-linecap:butt;stroke-linejoin:round;stroke:rgb(100%,91.372549%,27.058824%);stroke-opacity:0.8;stroke-miterlimit:10;" d="M 468.433594 146.386719 L 468.433594 138.953125 "/>
<path style="fill:none;stroke-width:1.066978;stroke-linecap:butt;stroke-linejoin:round;stroke:rgb(98.039216%,88.235294%,28.627451%);stroke-opacity:0.8;stroke-miterlimit:10;" d="M 614.574219 135.386719 L 614.574219 108.304688 "/>
<path style="fill:none;stroke-width:1.066978;stroke-linecap:butt;stroke-linejoin:round;stroke:rgb(100%,90.980392%,26.27451%);stroke-opacity:0.8;stroke-miterlimit:10;" d="M 306.316406 160.125 L 306.316406 172.953125 "/>
<path style="fill:none;stroke-width:1.066978;stroke-linecap:butt;stroke-linejoin:round;stroke:rgb(96.862745%,87.058824%,29.803922%);stroke-opacity:0.8;stroke-miterlimit:10;" d="M 232.761719 218.90625 L 232.761719 188.378906 "/>
<path style="fill:none;stroke-width:1.066978;stroke-linecap:butt;stroke-linejoin:round;stroke:rgb(100%,89.803922%,26.27451%);stroke-opacity:0.8;stroke-miterlimit:10;" d="M 541.425781 142.589844 L 541.425781 123.644531 "/>
<path style="fill:none;stroke-width:1.066978;stroke-linecap:butt;stroke-linejoin:round;stroke:rgb(88.627451%,80.392157%,36.078431%);stroke-opacity:0.8;stroke-miterlimit:10;" d="M 466.945312 188.09375 L 466.945312 139.265625 "/>
<path style="fill:none;stroke-width:1.066978;stroke-linecap:butt;stroke-linejoin:round;stroke:rgb(96.862745%,87.058824%,29.803922%);stroke-opacity:0.8;stroke-miterlimit:10;" d="M 296.84375 205.667969 L 296.84375 174.9375 "/>
<path style="fill:none;stroke-width:1.066978;stroke-linecap:butt;stroke-linejoin:round;stroke:rgb(100%,89.803922%,26.666667%);stroke-opacity:0.8;stroke-miterlimit:10;" d="M 450.742188 163.527344 L 450.742188 142.664062 "/>
<path style="fill:none;stroke-width:1.066978;stroke-linecap:butt;stroke-linejoin:round;stroke:rgb(86.27451%,78.431373%,37.647059%);stroke-opacity:0.8;stroke-miterlimit:10;" d="M 528.195312 73.664062 L 528.195312 126.417969 "/>
<path style="fill:none;stroke-width:1.066978;stroke-linecap:butt;stroke-linejoin:round;stroke:rgb(80%,73.333333%,41.176471%);stroke-opacity:0.8;stroke-miterlimit:10;" d="M 306.160156 110.066406 L 306.160156 172.984375 "/>
<path style="fill:none;stroke-width:1.066978;stroke-linecap:butt;stroke-linejoin:round;stroke:rgb(100%,91.764706%,27.45098%);stroke-opacity:0.8;stroke-miterlimit:10;" d="M 589.402344 112.140625 L 589.402344 113.582031 "/>
<path style="fill:none;stroke-width:1.066978;stroke-linecap:butt;stroke-linejoin:round;stroke:rgb(100%,90.588235%,25.882353%);stroke-opacity:0.8;stroke-miterlimit:10;" d="M 428.140625 164.023438 L 428.140625 147.402344 "/>
<path style="fill:none;stroke-width:1.066978;stroke-linecap:butt;stroke-linejoin:round;stroke:rgb(96.078431%,86.666667%,30.196078%);stroke-opacity:0.8;stroke-miterlimit:10;" d="M 40.207031 261.546875 L 40.207031 228.761719 "/>
<path style="fill:none;stroke-width:1.066978;stroke-linecap:butt;stroke-linejoin:round;stroke:rgb(96.862745%,87.058824%,29.803922%);stroke-opacity:0.8;stroke-miterlimit:10;" d="M 73.582031 252.671875 L 73.582031 221.761719 "/>
<path style="fill:none;stroke-width:1.066978;stroke-linecap:butt;stroke-linejoin:round;stroke:rgb(98.823529%,88.627451%,27.843137%);stroke-opacity:0.8;stroke-miterlimit:10;" d="M 438.097656 120.695312 L 438.097656 145.316406 "/>
<path style="fill:none;stroke-width:1.066978;stroke-linecap:butt;stroke-linejoin:round;stroke:rgb(92.156863%,83.137255%,33.72549%);stroke-opacity:0.8;stroke-miterlimit:10;" d="M 291.429688 134.089844 L 291.429688 176.074219 "/>
<path style="fill:none;stroke-width:1.066978;stroke-linecap:butt;stroke-linejoin:round;stroke:rgb(100%,89.803922%,26.666667%);stroke-opacity:0.8;stroke-miterlimit:10;" d="M 333.488281 187.628906 L 333.488281 167.253906 "/>
<path style="fill:none;stroke-width:1.066978;stroke-linecap:butt;stroke-linejoin:round;stroke:rgb(88.627451%,80.392157%,36.078431%);stroke-opacity:0.8;stroke-miterlimit:10;" d="M 408.90625 102.824219 L 408.90625 151.4375 "/>
<path style="fill:none;stroke-width:1.066978;stroke-linecap:butt;stroke-linejoin:round;stroke:rgb(100%,91.764706%,27.45098%);stroke-opacity:0.8;stroke-miterlimit:10;" d="M 373.109375 161.050781 L 373.109375 158.945312 "/>
<path style="fill:none;stroke-width:1.066978;stroke-linecap:butt;stroke-linejoin:round;stroke:rgb(85.098039%,77.254902%,38.431373%);stroke-opacity:0.8;stroke-miterlimit:10;" d="M 281.054688 233.53125 L 281.054688 178.25 "/>
<path style="fill:none;stroke-width:1.066978;stroke-linecap:butt;stroke-linejoin:round;stroke:rgb(100%,91.764706%,27.058824%);stroke-opacity:0.8;stroke-miterlimit:10;" d="M 240.878906 192.246094 L 240.878906 186.675781 "/>
<path style="fill:none;stroke-width:1.066978;stroke-linecap:butt;stroke-linejoin:round;stroke:rgb(100%,91.372549%,26.666667%);stroke-opacity:0.8;stroke-miterlimit:10;" d="M 343.269531 155.699219 L 343.269531 165.203125 "/>
<path style="fill:none;stroke-width:1.066978;stroke-linecap:butt;stroke-linejoin:round;stroke:rgb(94.509804%,85.098039%,31.764706%);stroke-opacity:0.8;stroke-miterlimit:10;" d="M 642.464844 139.132812 L 642.464844 102.453125 "/>
<path style="fill:none;stroke-width:1.066978;stroke-linecap:butt;stroke-linejoin:round;stroke:rgb(96.862745%,87.058824%,29.803922%);stroke-opacity:0.8;stroke-miterlimit:10;" d="M 582.144531 145.644531 L 582.144531 115.105469 "/>
<path style="fill:none;stroke-width:1.066978;stroke-linecap:butt;stroke-linejoin:round;stroke:rgb(89.411765%,81.176471%,35.686275%);stroke-opacity:0.8;stroke-miterlimit:10;" d="M 381.601562 109.988281 L 381.601562 157.164062 "/>
<path style="fill:none;stroke-width:1.066978;stroke-linecap:butt;stroke-linejoin:round;stroke:rgb(87.843137%,79.607843%,36.862745%);stroke-opacity:0.8;stroke-miterlimit:10;" d="M 341.980469 115.019531 L 341.980469 165.472656 "/>
<path style="fill:none;stroke-width:1.066978;stroke-linecap:butt;stroke-linejoin:round;stroke:rgb(67.45098%,63.137255%,45.490196%);stroke-opacity:0.8;stroke-miterlimit:10;" d="M 113.027344 133.695312 L 113.027344 213.492188 "/>
<path style="fill:none;stroke-width:1.066978;stroke-linecap:butt;stroke-linejoin:round;stroke:rgb(89.803922%,81.568627%,35.294118%);stroke-opacity:0.8;stroke-miterlimit:10;" d="M 354.246094 208.960938 L 354.246094 162.902344 "/>
<path style="fill:none;stroke-width:1.066978;stroke-linecap:butt;stroke-linejoin:round;stroke:rgb(100%,91.764706%,27.45098%);stroke-opacity:0.8;stroke-miterlimit:10;" d="M 467.800781 139.746094 L 467.800781 139.085938 "/>
<path style="fill:none;stroke-width:1.066978;stroke-linecap:butt;stroke-linejoin:round;stroke:rgb(94.901961%,85.490196%,31.372549%);stroke-opacity:0.8;stroke-miterlimit:10;" d="M 197.167969 159.769531 L 197.167969 195.84375 "/>
<path style="fill:none;stroke-width:1.066978;stroke-linecap:butt;stroke-linejoin:round;stroke:rgb(95.686275%,86.27451%,30.588235%);stroke-opacity:0.8;stroke-miterlimit:10;" d="M 493.011719 99.835938 L 493.011719 133.796875 "/>
<path style="fill:none;stroke-width:1.066978;stroke-linecap:butt;stroke-linejoin:round;stroke:rgb(100%,91.764706%,27.058824%);stroke-opacity:0.8;stroke-miterlimit:10;" d="M 501.652344 138.121094 L 501.652344 131.984375 "/>
<path style="fill:none;stroke-width:1.066978;stroke-linecap:butt;stroke-linejoin:round;stroke:rgb(76.470588%,70.588235%,42.745098%);stroke-opacity:0.8;stroke-miterlimit:10;" d="M 206.019531 126 L 206.019531 193.988281 "/>
<path style="fill:none;stroke-width:1.066978;stroke-linecap:butt;stroke-linejoin:round;stroke:rgb(44.313725%,44.313725%,45.490196%);stroke-opacity:0.8;stroke-miterlimit:10;" d="M 534.003906 19.296875 L 534.003906 125.199219 "/>
<path style="fill:none;stroke-width:1.066978;stroke-linecap:butt;stroke-linejoin:round;stroke:rgb(100%,91.764706%,27.45098%);stroke-opacity:0.8;stroke-miterlimit:10;" d="M 324.160156 170.847656 L 324.160156 169.210938 "/>
<path style="fill:none;stroke-width:1.066978;stroke-linecap:butt;stroke-linejoin:round;stroke:rgb(89.411765%,81.176471%,35.686275%);stroke-opacity:0.8;stroke-miterlimit:10;" d="M 301.222656 221.136719 L 301.222656 174.019531 "/>
<path style="fill:none;stroke-width:1.066978;stroke-linecap:butt;stroke-linejoin:round;stroke:rgb(100%,91.764706%,27.45098%);stroke-opacity:0.8;stroke-miterlimit:10;" d="M 502.511719 130.746094 L 502.511719 131.804688 "/>
<path style="fill:none;stroke-width:1.066978;stroke-linecap:butt;stroke-linejoin:round;stroke:rgb(76.078431%,70.196078%,42.745098%);stroke-opacity:0.8;stroke-miterlimit:10;" d="M 427.613281 216.257812 L 427.613281 147.511719 "/>
<path style="fill:none;stroke-width:1.066978;stroke-linecap:butt;stroke-linejoin:round;stroke:rgb(95.686275%,86.27451%,30.588235%);stroke-opacity:0.8;stroke-miterlimit:10;" d="M 315.078125 137.898438 L 315.078125 171.117188 "/>
<path style="fill:none;stroke-width:1.066978;stroke-linecap:butt;stroke-linejoin:round;stroke:rgb(92.156863%,83.137255%,33.72549%);stroke-opacity:0.8;stroke-miterlimit:10;" d="M 193.519531 238.679688 L 193.519531 196.609375 "/>
<path style="fill:none;stroke-width:1.066978;stroke-linecap:butt;stroke-linejoin:round;stroke:rgb(94.509804%,85.098039%,31.764706%);stroke-opacity:0.8;stroke-miterlimit:10;" d="M 510.824219 92.847656 L 510.824219 130.0625 "/>
<path style="fill:none;stroke-width:1.066978;stroke-linecap:butt;stroke-linejoin:round;stroke:rgb(100%,90.980392%,26.27451%);stroke-opacity:0.8;stroke-miterlimit:10;" d="M 206.996094 205.367188 L 206.996094 193.78125 "/>
<path style="fill:none;stroke-width:1.066978;stroke-linecap:butt;stroke-linejoin:round;stroke:rgb(100%,91.764706%,27.45098%);stroke-opacity:0.8;stroke-miterlimit:10;" d="M 87.496094 216.960938 L 87.496094 218.84375 "/>
<path style="fill:none;stroke-width:1.066978;stroke-linecap:butt;stroke-linejoin:round;stroke:rgb(94.117647%,84.705882%,32.156863%);stroke-opacity:0.8;stroke-miterlimit:10;" d="M 516.308594 167.269531 L 516.308594 128.910156 "/>
<path style="fill:none;stroke-width:1.066978;stroke-linecap:butt;stroke-linejoin:round;stroke:rgb(100%,90.588235%,25.882353%);stroke-opacity:0.8;stroke-miterlimit:10;" d="M 501.089844 116.375 L 501.089844 132.105469 "/>
<path style="fill:none;stroke-width:1.066978;stroke-linecap:butt;stroke-linejoin:round;stroke:rgb(100%,91.372549%,26.666667%);stroke-opacity:0.8;stroke-miterlimit:10;" d="M 456.804688 152.105469 L 456.804688 141.390625 "/>
<path style="fill:none;stroke-width:1.066978;stroke-linecap:butt;stroke-linejoin:round;stroke:rgb(100%,91.764706%,27.058824%);stroke-opacity:0.8;stroke-miterlimit:10;" d="M 23.234375 237.351562 L 23.234375 232.324219 "/>
<path style="fill:none;stroke-width:1.066978;stroke-linecap:butt;stroke-linejoin:round;stroke:rgb(100%,91.764706%,27.45098%);stroke-opacity:0.8;stroke-miterlimit:10;" d="M 330.410156 169.132812 L 330.410156 167.898438 "/>
<path style="fill:none;stroke-width:1.066978;stroke-linecap:butt;stroke-linejoin:round;stroke:rgb(90.196078%,81.960784%,34.901961%);stroke-opacity:0.8;stroke-miterlimit:10;" d="M 384.050781 110.796875 L 384.050781 156.648438 "/>
<path style="fill:none;stroke-width:1.066978;stroke-linecap:butt;stroke-linejoin:round;stroke:rgb(89.803922%,81.568627%,35.294118%);stroke-opacity:0.8;stroke-miterlimit:10;" d="M 550.144531 168.460938 L 550.144531 121.816406 "/>
<path style="fill:none;stroke-width:1.066978;stroke-linecap:butt;stroke-linejoin:round;stroke:rgb(100%,91.764706%,27.45098%);stroke-opacity:0.8;stroke-miterlimit:10;" d="M 416.890625 151.160156 L 416.890625 149.761719 "/>
<path style="fill:none;stroke-width:1.066978;stroke-linecap:butt;stroke-linejoin:round;stroke:rgb(100%,91.764706%,27.45098%);stroke-opacity:0.8;stroke-miterlimit:10;" d="M 180.988281 201.023438 L 180.988281 199.238281 "/>
<path style="fill-rule:nonzero;fill:rgb(18.431373%,30.980392%,30.980392%);fill-opacity:0.901961;stroke-width:0.708661;stroke-linecap:round;stroke-linejoin:round;stroke:rgb(18.431373%,30.980392%,30.980392%);stroke-opacity:0.901961;stroke-miterlimit:10;" d="M 374.308594 135.273438 C 374.308594 138.414062 371.761719 140.960938 368.617188 140.960938 C 365.476562 140.960938 362.929688 138.414062 362.929688 135.273438 C 362.929688 132.128906 365.476562 129.582031 368.617188 129.582031 C 371.761719 129.582031 374.308594 132.128906 374.308594 135.273438 "/>
<path style="fill-rule:nonzero;fill:rgb(18.431373%,30.980392%,30.980392%);fill-opacity:0.901961;stroke-width:0.708661;stroke-linecap:round;stroke-linejoin:round;stroke:rgb(18.431373%,30.980392%,30.980392%);stroke-opacity:0.901961;stroke-miterlimit:10;" d="M 197.179688 127.191406 C 197.179688 130.335938 194.632812 132.882812 191.488281 132.882812 C 188.347656 132.882812 185.800781 130.335938 185.800781 127.191406 C 185.800781 124.050781 188.347656 121.503906 191.488281 121.503906 C 194.632812 121.503906 197.179688 124.050781 197.179688 127.191406 "/>
<path style="fill-rule:nonzero;fill:rgb(18.431373%,30.980392%,30.980392%);fill-opacity:0.901961;stroke-width:0.708661;stroke-linecap:round;stroke-linejoin:round;stroke:rgb(18.431373%,30.980392%,30.980392%);stroke-opacity:0.901961;stroke-miterlimit:10;" d="M 452.15625 286.039062 C 452.15625 289.179688 449.609375 291.730469 446.464844 291.730469 C 443.324219 291.730469 440.777344 289.179688 440.777344 286.039062 C 440.777344 282.898438 443.324219 280.351562 446.464844 280.351562 C 449.609375 280.351562 452.15625 282.898438 452.15625 286.039062 "/>
<path style="fill-rule:nonzero;fill:rgb(18.431373%,30.980392%,30.980392%);fill-opacity:0.901961;stroke-width:0.708661;stroke-linecap:round;stroke-linejoin:round;stroke:rgb(18.431373%,30.980392%,30.980392%);stroke-opacity:0.901961;stroke-miterlimit:10;" d="M 396.382812 192.011719 C 396.382812 195.152344 393.835938 197.703125 390.695312 197.703125 C 387.550781 197.703125 385.003906 195.152344 385.003906 192.011719 C 385.003906 188.871094 387.550781 186.324219 390.695312 186.324219 C 393.835938 186.324219 396.382812 188.871094 396.382812 192.011719 "/>
<path style="fill-rule:nonzero;fill:rgb(18.431373%,30.980392%,30.980392%);fill-opacity:0.901961;stroke-width:0.708661;stroke-linecap:round;stroke-linejoin:round;stroke:rgb(18.431373%,30.980392%,30.980392%);stroke-opacity:0.901961;stroke-miterlimit:10;" d="M 314.226562 119.265625 C 314.226562 122.40625 311.679688 124.953125 308.539062 124.953125 C 305.394531 124.953125 302.847656 122.40625 302.847656 119.265625 C 302.847656 116.121094 305.394531 113.574219 308.539062 113.574219 C 311.679688 113.574219 314.226562 116.121094 314.226562 119.265625 "/>
<path style="fill-rule:nonzero;fill:rgb(18.431373%,30.980392%,30.980392%);fill-opacity:0.901961;stroke-width:0.708661;stroke-linecap:round;stroke-linejoin:round;stroke:rgb(18.431373%,30.980392%,30.980392%);stroke-opacity:0.901961;stroke-miterlimit:10;" d="M 401.765625 175.074219 C 401.765625 178.214844 399.21875 180.761719 396.078125 180.761719 C 392.933594 180.761719 390.386719 178.214844 390.386719 175.074219 C 390.386719 171.933594 392.933594 169.386719 396.078125 169.386719 C 399.21875 169.386719 401.765625 171.933594 401.765625 175.074219 "/>
<path style="fill-rule:nonzero;fill:rgb(18.431373%,30.980392%,30.980392%);fill-opacity:0.901961;stroke-width:0.708661;stroke-linecap:round;stroke-linejoin:round;stroke:rgb(18.431373%,30.980392%,30.980392%);stroke-opacity:0.901961;stroke-miterlimit:10;" d="M 395.175781 120.433594 C 395.175781 123.578125 392.628906 126.125 389.488281 126.125 C 386.347656 126.125 383.800781 123.578125 383.800781 120.433594 C 383.800781 117.292969 386.347656 114.746094 389.488281 114.746094 C 392.628906 114.746094 395.175781 117.292969 395.175781 120.433594 "/>
<path style="fill-rule:nonzero;fill:rgb(18.431373%,30.980392%,30.980392%);fill-opacity:0.901961;stroke-width:0.708661;stroke-linecap:round;stroke-linejoin:round;stroke:rgb(18.431373%,30.980392%,30.980392%);stroke-opacity:0.901961;stroke-miterlimit:10;" d="M 282.226562 235.195312 C 282.226562 238.339844 279.679688 240.886719 276.535156 240.886719 C 273.394531 240.886719 270.847656 238.339844 270.847656 235.195312 C 270.847656 232.054688 273.394531 229.507812 276.535156 229.507812 C 279.679688 229.507812 282.226562 232.054688 282.226562 235.195312 "/>
<path style="fill-rule:nonzero;fill:rgb(18.431373%,30.980392%,30.980392%);fill-opacity:0.901961;stroke-width:0.708661;stroke-linecap:round;stroke-linejoin:round;stroke:rgb(18.431373%,30.980392%,30.980392%);stroke-opacity:0.901961;stroke-miterlimit:10;" d="M 482.886719 154.285156 C 482.886719 157.425781 480.339844 159.972656 477.199219 159.972656 C 474.058594 159.972656 471.507812 157.425781 471.507812 154.285156 C 471.507812 151.144531 474.058594 148.597656 477.199219 148.597656 C 480.339844 148.597656 482.886719 151.144531 482.886719 154.285156 "/>
<path style="fill-rule:nonzero;fill:rgb(18.431373%,30.980392%,30.980392%);fill-opacity:0.901961;stroke-width:0.708661;stroke-linecap:round;stroke-linejoin:round;stroke:rgb(18.431373%,30.980392%,30.980392%);stroke-opacity:0.901961;stroke-miterlimit:10;" d="M 581.113281 55.523438 C 581.113281 58.664062 578.566406 61.210938 575.421875 61.210938 C 572.28125 61.210938 569.734375 58.664062 569.734375 55.523438 C 569.734375 52.382812 572.28125 49.835938 575.421875 49.835938 C 578.566406 49.835938 581.113281 52.382812 581.113281 55.523438 "/>
<path style="fill-rule:nonzero;fill:rgb(18.431373%,30.980392%,30.980392%);fill-opacity:0.901961;stroke-width:0.708661;stroke-linecap:round;stroke-linejoin:round;stroke:rgb(18.431373%,30.980392%,30.980392%);stroke-opacity:0.901961;stroke-miterlimit:10;" d="M 300.5 249.183594 C 300.5 252.328125 297.953125 254.875 294.808594 254.875 C 291.667969 254.875 289.121094 252.328125 289.121094 249.183594 C 289.121094 246.042969 291.667969 243.496094 294.808594 243.496094 C 297.953125 243.496094 300.5 246.042969 300.5 249.183594 "/>
<path style="fill-rule:nonzero;fill:rgb(18.431373%,30.980392%,30.980392%);fill-opacity:0.901961;stroke-width:0.708661;stroke-linecap:round;stroke-linejoin:round;stroke:rgb(18.431373%,30.980392%,30.980392%);stroke-opacity:0.901961;stroke-miterlimit:10;" d="M 256.464844 149.90625 C 256.464844 153.050781 253.917969 155.597656 250.773438 155.597656 C 247.632812 155.597656 245.085938 153.050781 245.085938 149.90625 C 245.085938 146.765625 247.632812 144.21875 250.773438 144.21875 C 253.917969 144.21875 256.464844 146.765625 256.464844 149.90625 "/>
<path style="fill-rule:nonzero;fill:rgb(18.431373%,30.980392%,30.980392%);fill-opacity:0.901961;stroke-width:0.708661;stroke-linecap:round;stroke-linejoin:round;stroke:rgb(18.431373%,30.980392%,30.980392%);stroke-opacity:0.901961;stroke-miterlimit:10;" d="M 402.265625 190.21875 C 402.265625 193.359375 399.71875 195.90625 396.578125 195.90625 C 393.433594 195.90625 390.886719 193.359375 390.886719 190.21875 C 390.886719 187.074219 393.433594 184.527344 396.578125 184.527344 C 399.71875 184.527344 402.265625 187.074219 402.265625 190.21875 "/>
<path style="fill-rule:nonzero;fill:rgb(18.431373%,30.980392%,30.980392%);fill-opacity:0.901961;stroke-width:0.708661;stroke-linecap:round;stroke-linejoin:round;stroke:rgb(18.431373%,30.980392%,30.980392%);stroke-opacity:0.901961;stroke-miterlimit:10;" d="M 309.050781 184.78125 C 309.050781 187.921875 306.503906 190.46875 303.363281 190.46875 C 300.21875 190.46875 297.671875 187.921875 297.671875 184.78125 C 297.671875 181.636719 300.21875 179.089844 303.363281 179.089844 C 306.503906 179.089844 309.050781 181.636719 309.050781 184.78125 "/>
<path style="fill-rule:nonzero;fill:rgb(18.431373%,30.980392%,30.980392%);fill-opacity:0.901961;stroke-width:0.708661;stroke-linecap:round;stroke-linejoin:round;stroke:rgb(18.431373%,30.980392%,30.980392%);stroke-opacity:0.901961;stroke-miterlimit:10;" d="M 591.9375 122.238281 C 591.9375 125.378906 589.390625 127.925781 586.25 127.925781 C 583.105469 127.925781 580.558594 125.378906 580.558594 122.238281 C 580.558594 119.09375 583.105469 116.546875 586.25 116.546875 C 589.390625 116.546875 591.9375 119.09375 591.9375 122.238281 "/>
<path style="fill-rule:nonzero;fill:rgb(18.431373%,30.980392%,30.980392%);fill-opacity:0.901961;stroke-width:0.708661;stroke-linecap:round;stroke-linejoin:round;stroke:rgb(18.431373%,30.980392%,30.980392%);stroke-opacity:0.901961;stroke-miterlimit:10;" d="M 297.921875 93.648438 C 297.921875 96.789062 295.375 99.335938 292.230469 99.335938 C 289.089844 99.335938 286.542969 96.789062 286.542969 93.648438 C 286.542969 90.503906 289.089844 87.957031 292.230469 87.957031 C 295.375 87.957031 297.921875 90.503906 297.921875 93.648438 "/>
<path style="fill-rule:nonzero;fill:rgb(18.431373%,30.980392%,30.980392%);fill-opacity:0.901961;stroke-width:0.708661;stroke-linecap:round;stroke-linejoin:round;stroke:rgb(18.431373%,30.980392%,30.980392%);stroke-opacity:0.901961;stroke-miterlimit:10;" d="M 470.050781 119.035156 C 470.050781 122.179688 467.503906 124.726562 464.363281 124.726562 C 461.21875 124.726562 458.671875 122.179688 458.671875 119.035156 C 458.671875 115.894531 461.21875 113.347656 464.363281 113.347656 C 467.503906 113.347656 470.050781 115.894531 470.050781 119.035156 "/>
<path style="fill-rule:nonzero;fill:rgb(18.431373%,30.980392%,30.980392%);fill-opacity:0.901961;stroke-width:0.708661;stroke-linecap:round;stroke-linejoin:round;stroke:rgb(18.431373%,30.980392%,30.980392%);stroke-opacity:0.901961;stroke-miterlimit:10;" d="M 567.011719 178.183594 C 567.011719 181.324219 564.464844 183.871094 561.324219 183.871094 C 558.179688 183.871094 555.632812 181.324219 555.632812 178.183594 C 555.632812 175.039062 558.179688 172.492188 561.324219 172.492188 C 564.464844 172.492188 567.011719 175.039062 567.011719 178.183594 "/>
<path style="fill-rule:nonzero;fill:rgb(18.431373%,30.980392%,30.980392%);fill-opacity:0.901961;stroke-width:0.708661;stroke-linecap:round;stroke-linejoin:round;stroke:rgb(18.431373%,30.980392%,30.980392%);stroke-opacity:0.901961;stroke-miterlimit:10;" d="M 726.796875 68.054688 C 726.796875 71.195312 724.25 73.742188 721.105469 73.742188 C 717.964844 73.742188 715.417969 71.195312 715.417969 68.054688 C 715.417969 64.910156 717.964844 62.363281 721.105469 62.363281 C 724.25 62.363281 726.796875 64.910156 726.796875 68.054688 "/>
<path style="fill-rule:nonzero;fill:rgb(18.431373%,30.980392%,30.980392%);fill-opacity:0.901961;stroke-width:0.708661;stroke-linecap:round;stroke-linejoin:round;stroke:rgb(18.431373%,30.980392%,30.980392%);stroke-opacity:0.901961;stroke-miterlimit:10;" d="M 424.839844 182.136719 C 424.839844 185.28125 422.292969 187.828125 419.148438 187.828125 C 416.007812 187.828125 413.460938 185.28125 413.460938 182.136719 C 413.460938 178.996094 416.007812 176.449219 419.148438 176.449219 C 422.292969 176.449219 424.839844 178.996094 424.839844 182.136719 "/>
<path style="fill-rule:nonzero;fill:rgb(18.431373%,30.980392%,30.980392%);fill-opacity:0.901961;stroke-width:0.708661;stroke-linecap:round;stroke-linejoin:round;stroke:rgb(18.431373%,30.980392%,30.980392%);stroke-opacity:0.901961;stroke-miterlimit:10;" d="M 613.835938 144.339844 C 613.835938 147.484375 611.289062 150.03125 608.148438 150.03125 C 605.007812 150.03125 602.460938 147.484375 602.460938 144.339844 C 602.460938 141.199219 605.007812 138.652344 608.148438 138.652344 C 611.289062 138.652344 613.835938 141.199219 613.835938 144.339844 "/>
<path style="fill-rule:nonzero;fill:rgb(18.431373%,30.980392%,30.980392%);fill-opacity:0.901961;stroke-width:0.708661;stroke-linecap:round;stroke-linejoin:round;stroke:rgb(18.431373%,30.980392%,30.980392%);stroke-opacity:0.901961;stroke-miterlimit:10;" d="M 449.230469 195.882812 C 449.230469 199.027344 446.683594 201.574219 443.539062 201.574219 C 440.398438 201.574219 437.851562 199.027344 437.851562 195.882812 C 437.851562 192.742188 440.398438 190.195312 443.539062 190.195312 C 446.683594 190.195312 449.230469 192.742188 449.230469 195.882812 "/>
<path style="fill-rule:nonzero;fill:rgb(18.431373%,30.980392%,30.980392%);fill-opacity:0.901961;stroke-width:0.708661;stroke-linecap:round;stroke-linejoin:round;stroke:rgb(18.431373%,30.980392%,30.980392%);stroke-opacity:0.901961;stroke-miterlimit:10;" d="M 389.917969 183.707031 C 389.917969 186.847656 387.371094 189.394531 384.226562 189.394531 C 381.085938 189.394531 378.539062 186.847656 378.539062 183.707031 C 378.539062 180.5625 381.085938 178.015625 384.226562 178.015625 C 387.371094 178.015625 389.917969 180.5625 389.917969 183.707031 "/>
<path style="fill-rule:nonzero;fill:rgb(18.431373%,30.980392%,30.980392%);fill-opacity:0.901961;stroke-width:0.708661;stroke-linecap:round;stroke-linejoin:round;stroke:rgb(18.431373%,30.980392%,30.980392%);stroke-opacity:0.901961;stroke-miterlimit:10;" d="M 425.039062 169.496094 C 425.039062 172.640625 422.492188 175.1875 419.347656 175.1875 C 416.207031 175.1875 413.660156 172.640625 413.660156 169.496094 C 413.660156 166.355469 416.207031 163.808594 419.347656 163.808594 C 422.492188 163.808594 425.039062 166.355469 425.039062 169.496094 "/>
<path style="fill-rule:nonzero;fill:rgb(18.431373%,30.980392%,30.980392%);fill-opacity:0.901961;stroke-width:0.708661;stroke-linecap:round;stroke-linejoin:round;stroke:rgb(18.431373%,30.980392%,30.980392%);stroke-opacity:0.901961;stroke-miterlimit:10;" d="M 569.410156 150.566406 C 569.410156 153.707031 566.863281 156.253906 563.71875 156.253906 C 560.578125 156.253906 558.03125 153.707031 558.03125 150.566406 C 558.03125 147.421875 560.578125 144.875 563.71875 144.875 C 566.863281 144.875 569.410156 147.421875 569.410156 150.566406 "/>
<path style="fill-rule:nonzero;fill:rgb(18.431373%,30.980392%,30.980392%);fill-opacity:0.901961;stroke-width:0.708661;stroke-linecap:round;stroke-linejoin:round;stroke:rgb(18.431373%,30.980392%,30.980392%);stroke-opacity:0.901961;stroke-miterlimit:10;" d="M 407.71875 163.046875 C 407.71875 166.1875 405.171875 168.734375 402.03125 168.734375 C 398.886719 168.734375 396.339844 166.1875 396.339844 163.046875 C 396.339844 159.902344 398.886719 157.355469 402.03125 157.355469 C 405.171875 157.355469 407.71875 159.902344 407.71875 163.046875 "/>
<path style="fill-rule:nonzero;fill:rgb(18.431373%,30.980392%,30.980392%);fill-opacity:0.901961;stroke-width:0.708661;stroke-linecap:round;stroke-linejoin:round;stroke:rgb(18.431373%,30.980392%,30.980392%);stroke-opacity:0.901961;stroke-miterlimit:10;" d="M 359.847656 118.023438 C 359.847656 121.167969 357.300781 123.714844 354.160156 123.714844 C 351.015625 123.714844 348.46875 121.167969 348.46875 118.023438 C 348.46875 114.882812 351.015625 112.335938 354.160156 112.335938 C 357.300781 112.335938 359.847656 114.882812 359.847656 118.023438 "/>
<path style="fill-rule:nonzero;fill:rgb(18.431373%,30.980392%,30.980392%);fill-opacity:0.901961;stroke-width:0.708661;stroke-linecap:round;stroke-linejoin:round;stroke:rgb(18.431373%,30.980392%,30.980392%);stroke-opacity:0.901961;stroke-miterlimit:10;" d="M 265.75 171.628906 C 265.75 174.773438 263.203125 177.320312 260.058594 177.320312 C 256.917969 177.320312 254.371094 174.773438 254.371094 171.628906 C 254.371094 168.488281 256.917969 165.941406 260.058594 165.941406 C 263.203125 165.941406 265.75 168.488281 265.75 171.628906 "/>
<path style="fill-rule:nonzero;fill:rgb(18.431373%,30.980392%,30.980392%);fill-opacity:0.901961;stroke-width:0.708661;stroke-linecap:round;stroke-linejoin:round;stroke:rgb(18.431373%,30.980392%,30.980392%);stroke-opacity:0.901961;stroke-miterlimit:10;" d="M 127.714844 252.957031 C 127.714844 256.101562 125.167969 258.648438 122.027344 258.648438 C 118.882812 258.648438 116.335938 256.101562 116.335938 252.957031 C 116.335938 249.816406 118.882812 247.269531 122.027344 247.269531 C 125.167969 247.269531 127.714844 249.816406 127.714844 252.957031 "/>
<path style="fill-rule:nonzero;fill:rgb(18.431373%,30.980392%,30.980392%);fill-opacity:0.901961;stroke-width:0.708661;stroke-linecap:round;stroke-linejoin:round;stroke:rgb(18.431373%,30.980392%,30.980392%);stroke-opacity:0.901961;stroke-miterlimit:10;" d="M 542.859375 39.898438 C 542.859375 43.039062 540.3125 45.585938 537.171875 45.585938 C 534.027344 45.585938 531.480469 43.039062 531.480469 39.898438 C 531.480469 36.757812 534.027344 34.210938 537.171875 34.210938 C 540.3125 34.210938 542.859375 36.757812 542.859375 39.898438 "/>
<path style="fill-rule:nonzero;fill:rgb(18.431373%,30.980392%,30.980392%);fill-opacity:0.901961;stroke-width:0.708661;stroke-linecap:round;stroke-linejoin:round;stroke:rgb(18.431373%,30.980392%,30.980392%);stroke-opacity:0.901961;stroke-miterlimit:10;" d="M 289.832031 160.589844 C 289.832031 163.730469 287.285156 166.277344 284.140625 166.277344 C 281 166.277344 278.453125 163.730469 278.453125 160.589844 C 278.453125 157.449219 281 154.898438 284.140625 154.898438 C 287.285156 154.898438 289.832031 157.449219 289.832031 160.589844 "/>
<path style="fill-rule:nonzero;fill:rgb(18.431373%,30.980392%,30.980392%);fill-opacity:0.901961;stroke-width:0.708661;stroke-linecap:round;stroke-linejoin:round;stroke:rgb(18.431373%,30.980392%,30.980392%);stroke-opacity:0.901961;stroke-miterlimit:10;" d="M 438.398438 205.441406 C 438.398438 208.585938 435.851562 211.132812 432.710938 211.132812 C 429.566406 211.132812 427.019531 208.585938 427.019531 205.441406 C 427.019531 202.300781 429.566406 199.753906 432.710938 199.753906 C 435.851562 199.753906 438.398438 202.300781 438.398438 205.441406 "/>
<path style="fill-rule:nonzero;fill:rgb(18.431373%,30.980392%,30.980392%);fill-opacity:0.901961;stroke-width:0.708661;stroke-linecap:round;stroke-linejoin:round;stroke:rgb(18.431373%,30.980392%,30.980392%);stroke-opacity:0.901961;stroke-miterlimit:10;" d="M 484.996094 119.039062 C 484.996094 122.183594 482.449219 124.730469 479.308594 124.730469 C 476.164062 124.730469 473.617188 122.183594 473.617188 119.039062 C 473.617188 115.898438 476.164062 113.351562 479.308594 113.351562 C 482.449219 113.351562 484.996094 115.898438 484.996094 119.039062 "/>
<path style="fill-rule:nonzero;fill:rgb(18.431373%,30.980392%,30.980392%);fill-opacity:0.901961;stroke-width:0.708661;stroke-linecap:round;stroke-linejoin:round;stroke:rgb(18.431373%,30.980392%,30.980392%);stroke-opacity:0.901961;stroke-miterlimit:10;" d="M 511.207031 120.0625 C 511.207031 123.203125 508.65625 125.75 505.515625 125.75 C 502.375 125.75 499.828125 123.203125 499.828125 120.0625 C 499.828125 116.917969 502.375 114.371094 505.515625 114.371094 C 508.65625 114.371094 511.207031 116.917969 511.207031 120.0625 "/>
<path style="fill-rule:nonzero;fill:rgb(18.431373%,30.980392%,30.980392%);fill-opacity:0.901961;stroke-width:0.708661;stroke-linecap:round;stroke-linejoin:round;stroke:rgb(18.431373%,30.980392%,30.980392%);stroke-opacity:0.901961;stroke-miterlimit:10;" d="M 254.152344 235.183594 C 254.152344 238.328125 251.605469 240.875 248.464844 240.875 C 245.324219 240.875 242.777344 238.328125 242.777344 235.183594 C 242.777344 232.042969 245.324219 229.496094 248.464844 229.496094 C 251.605469 229.496094 254.152344 232.042969 254.152344 235.183594 "/>
<path style="fill-rule:nonzero;fill:rgb(18.431373%,30.980392%,30.980392%);fill-opacity:0.901961;stroke-width:0.708661;stroke-linecap:round;stroke-linejoin:round;stroke:rgb(18.431373%,30.980392%,30.980392%);stroke-opacity:0.901961;stroke-miterlimit:10;" d="M 654.203125 13.621094 C 654.203125 16.761719 651.65625 19.308594 648.515625 19.308594 C 645.371094 19.308594 642.824219 16.761719 642.824219 13.621094 C 642.824219 10.480469 645.371094 7.933594 648.515625 7.933594 C 651.65625 7.933594 654.203125 10.480469 654.203125 13.621094 "/>
<path style="fill-rule:nonzero;fill:rgb(18.431373%,30.980392%,30.980392%);fill-opacity:0.901961;stroke-width:0.708661;stroke-linecap:round;stroke-linejoin:round;stroke:rgb(18.431373%,30.980392%,30.980392%);stroke-opacity:0.901961;stroke-miterlimit:10;" d="M 655.703125 87.734375 C 655.703125 90.875 653.15625 93.421875 650.015625 93.421875 C 646.875 93.421875 644.328125 90.875 644.328125 87.734375 C 644.328125 84.59375 646.875 82.046875 650.015625 82.046875 C 653.15625 82.046875 655.703125 84.59375 655.703125 87.734375 "/>
<path style="fill-rule:nonzero;fill:rgb(18.431373%,30.980392%,30.980392%);fill-opacity:0.901961;stroke-width:0.708661;stroke-linecap:round;stroke-linejoin:round;stroke:rgb(18.431373%,30.980392%,30.980392%);stroke-opacity:0.901961;stroke-miterlimit:10;" d="M 580.554688 94.226562 C 580.554688 97.367188 578.007812 99.917969 574.867188 99.917969 C 571.722656 99.917969 569.175781 97.367188 569.175781 94.226562 C 569.175781 91.085938 571.722656 88.539062 574.867188 88.539062 C 578.007812 88.539062 580.554688 91.085938 580.554688 94.226562 "/>
<path style="fill-rule:nonzero;fill:rgb(18.431373%,30.980392%,30.980392%);fill-opacity:0.901961;stroke-width:0.708661;stroke-linecap:round;stroke-linejoin:round;stroke:rgb(18.431373%,30.980392%,30.980392%);stroke-opacity:0.901961;stroke-miterlimit:10;" d="M 478.371094 162.847656 C 478.371094 165.992188 475.824219 168.539062 472.679688 168.539062 C 469.539062 168.539062 466.992188 165.992188 466.992188 162.847656 C 466.992188 159.707031 469.539062 157.160156 472.679688 157.160156 C 475.824219 157.160156 478.371094 159.707031 478.371094 162.847656 "/>
<path style="fill-rule:nonzero;fill:rgb(18.431373%,30.980392%,30.980392%);fill-opacity:0.901961;stroke-width:0.708661;stroke-linecap:round;stroke-linejoin:round;stroke:rgb(18.431373%,30.980392%,30.980392%);stroke-opacity:0.901961;stroke-miterlimit:10;" d="M 392.707031 143.566406 C 392.707031 146.707031 390.160156 149.253906 387.019531 149.253906 C 383.875 149.253906 381.328125 146.707031 381.328125 143.566406 C 381.328125 140.421875 383.875 137.875 387.019531 137.875 C 390.160156 137.875 392.707031 140.421875 392.707031 143.566406 "/>
<path style="fill-rule:nonzero;fill:rgb(18.431373%,30.980392%,30.980392%);fill-opacity:0.901961;stroke-width:0.708661;stroke-linecap:round;stroke-linejoin:round;stroke:rgb(18.431373%,30.980392%,30.980392%);stroke-opacity:0.901961;stroke-miterlimit:10;" d="M 479.566406 123.199219 C 479.566406 126.339844 477.019531 128.886719 473.878906 128.886719 C 470.738281 128.886719 468.1875 126.339844 468.1875 123.199219 C 468.1875 120.054688 470.738281 117.507812 473.878906 117.507812 C 477.019531 117.507812 479.566406 120.054688 479.566406 123.199219 "/>
<path style="fill-rule:nonzero;fill:rgb(18.431373%,30.980392%,30.980392%);fill-opacity:0.901961;stroke-width:0.708661;stroke-linecap:round;stroke-linejoin:round;stroke:rgb(18.431373%,30.980392%,30.980392%);stroke-opacity:0.901961;stroke-miterlimit:10;" d="M 510.144531 99.066406 C 510.144531 102.210938 507.597656 104.757812 504.453125 104.757812 C 501.3125 104.757812 498.765625 102.210938 498.765625 99.066406 C 498.765625 95.925781 501.3125 93.378906 504.453125 93.378906 C 507.597656 93.378906 510.144531 95.925781 510.144531 99.066406 "/>
<path style="fill-rule:nonzero;fill:rgb(18.431373%,30.980392%,30.980392%);fill-opacity:0.901961;stroke-width:0.708661;stroke-linecap:round;stroke-linejoin:round;stroke:rgb(18.431373%,30.980392%,30.980392%);stroke-opacity:0.901961;stroke-miterlimit:10;" d="M 554.5625 164.5 C 554.5625 167.644531 552.015625 170.191406 548.875 170.191406 C 545.734375 170.191406 543.1875 167.644531 543.1875 164.5 C 543.1875 161.359375 545.734375 158.8125 548.875 158.8125 C 552.015625 158.8125 554.5625 161.359375 554.5625 164.5 "/>
<path style="fill-rule:nonzero;fill:rgb(18.431373%,30.980392%,30.980392%);fill-opacity:0.901961;stroke-width:0.708661;stroke-linecap:round;stroke-linejoin:round;stroke:rgb(18.431373%,30.980392%,30.980392%);stroke-opacity:0.901961;stroke-miterlimit:10;" d="M 330.875 160.917969 C 330.875 164.058594 328.328125 166.605469 325.1875 166.605469 C 322.042969 166.605469 319.496094 164.058594 319.496094 160.917969 C 319.496094 157.773438 322.042969 155.226562 325.1875 155.226562 C 328.328125 155.226562 330.875 157.773438 330.875 160.917969 "/>
<path style="fill-rule:nonzero;fill:rgb(18.431373%,30.980392%,30.980392%);fill-opacity:0.901961;stroke-width:0.708661;stroke-linecap:round;stroke-linejoin:round;stroke:rgb(18.431373%,30.980392%,30.980392%);stroke-opacity:0.901961;stroke-miterlimit:10;" d="M 340.484375 182.515625 C 340.484375 185.65625 337.9375 188.203125 334.796875 188.203125 C 331.652344 188.203125 329.105469 185.65625 329.105469 182.515625 C 329.105469 179.371094 331.652344 176.824219 334.796875 176.824219 C 337.9375 176.824219 340.484375 179.371094 340.484375 182.515625 "/>
<path style="fill-rule:nonzero;fill:rgb(18.431373%,30.980392%,30.980392%);fill-opacity:0.901961;stroke-width:0.708661;stroke-linecap:round;stroke-linejoin:round;stroke:rgb(18.431373%,30.980392%,30.980392%);stroke-opacity:0.901961;stroke-miterlimit:10;" d="M 359.527344 185.074219 C 359.527344 188.214844 356.980469 190.765625 353.839844 190.765625 C 350.699219 190.765625 348.152344 188.214844 348.152344 185.074219 C 348.152344 181.933594 350.699219 179.386719 353.839844 179.386719 C 356.980469 179.386719 359.527344 181.933594 359.527344 185.074219 "/>
<path style="fill-rule:nonzero;fill:rgb(18.431373%,30.980392%,30.980392%);fill-opacity:0.901961;stroke-width:0.708661;stroke-linecap:round;stroke-linejoin:round;stroke:rgb(18.431373%,30.980392%,30.980392%);stroke-opacity:0.901961;stroke-miterlimit:10;" d="M 241.671875 156.628906 C 241.671875 159.769531 239.121094 162.316406 235.980469 162.316406 C 232.839844 162.316406 230.292969 159.769531 230.292969 156.628906 C 230.292969 153.488281 232.839844 150.941406 235.980469 150.941406 C 239.121094 150.941406 241.671875 153.488281 241.671875 156.628906 "/>
<path style="fill-rule:nonzero;fill:rgb(18.431373%,30.980392%,30.980392%);fill-opacity:0.901961;stroke-width:0.708661;stroke-linecap:round;stroke-linejoin:round;stroke:rgb(18.431373%,30.980392%,30.980392%);stroke-opacity:0.901961;stroke-miterlimit:10;" d="M 466.605469 89.503906 C 466.605469 92.644531 464.058594 95.191406 460.917969 95.191406 C 457.773438 95.191406 455.226562 92.644531 455.226562 89.503906 C 455.226562 86.363281 457.773438 83.816406 460.917969 83.816406 C 464.058594 83.816406 466.605469 86.363281 466.605469 89.503906 "/>
<path style="fill-rule:nonzero;fill:rgb(18.431373%,30.980392%,30.980392%);fill-opacity:0.901961;stroke-width:0.708661;stroke-linecap:round;stroke-linejoin:round;stroke:rgb(18.431373%,30.980392%,30.980392%);stroke-opacity:0.901961;stroke-miterlimit:10;" d="M 474.121094 146.386719 C 474.121094 149.527344 471.574219 152.074219 468.433594 152.074219 C 465.289062 152.074219 462.742188 149.527344 462.742188 146.386719 C 462.742188 143.242188 465.289062 140.695312 468.433594 140.695312 C 471.574219 140.695312 474.121094 143.242188 474.121094 146.386719 "/>
<path style="fill-rule:nonzero;fill:rgb(18.431373%,30.980392%,30.980392%);fill-opacity:0.901961;stroke-width:0.708661;stroke-linecap:round;stroke-linejoin:round;stroke:rgb(18.431373%,30.980392%,30.980392%);stroke-opacity:0.901961;stroke-miterlimit:10;" d="M 620.261719 135.386719 C 620.261719 138.53125 617.714844 141.078125 614.574219 141.078125 C 611.429688 141.078125 608.882812 138.53125 608.882812 135.386719 C 608.882812 132.246094 611.429688 129.699219 614.574219 129.699219 C 617.714844 129.699219 620.261719 132.246094 620.261719 135.386719 "/>
<path style="fill-rule:nonzero;fill:rgb(18.431373%,30.980392%,30.980392%);fill-opacity:0.901961;stroke-width:0.708661;stroke-linecap:round;stroke-linejoin:round;stroke:rgb(18.431373%,30.980392%,30.980392%);stroke-opacity:0.901961;stroke-miterlimit:10;" d="M 312.003906 160.125 C 312.003906 163.265625 309.457031 165.8125 306.316406 165.8125 C 303.171875 165.8125 300.625 163.265625 300.625 160.125 C 300.625 156.984375 303.171875 154.4375 306.316406 154.4375 C 309.457031 154.4375 312.003906 156.984375 312.003906 160.125 "/>
<path style="fill-rule:nonzero;fill:rgb(18.431373%,30.980392%,30.980392%);fill-opacity:0.901961;stroke-width:0.708661;stroke-linecap:round;stroke-linejoin:round;stroke:rgb(18.431373%,30.980392%,30.980392%);stroke-opacity:0.901961;stroke-miterlimit:10;" d="M 238.449219 218.90625 C 238.449219 222.046875 235.902344 224.59375 232.761719 224.59375 C 229.617188 224.59375 227.070312 222.046875 227.070312 218.90625 C 227.070312 215.761719 229.617188 213.214844 232.761719 213.214844 C 235.902344 213.214844 238.449219 215.761719 238.449219 218.90625 "/>
<path style="fill-rule:nonzero;fill:rgb(18.431373%,30.980392%,30.980392%);fill-opacity:0.901961;stroke-width:0.708661;stroke-linecap:round;stroke-linejoin:round;stroke:rgb(18.431373%,30.980392%,30.980392%);stroke-opacity:0.901961;stroke-miterlimit:10;" d="M 547.113281 142.589844 C 547.113281 145.730469 544.566406 148.277344 541.425781 148.277344 C 538.28125 148.277344 535.734375 145.730469 535.734375 142.589844 C 535.734375 139.445312 538.28125 136.898438 541.425781 136.898438 C 544.566406 136.898438 547.113281 139.445312 547.113281 142.589844 "/>
<path style="fill-rule:nonzero;fill:rgb(18.431373%,30.980392%,30.980392%);fill-opacity:0.901961;stroke-width:0.708661;stroke-linecap:round;stroke-linejoin:round;stroke:rgb(18.431373%,30.980392%,30.980392%);stroke-opacity:0.901961;stroke-miterlimit:10;" d="M 472.636719 188.09375 C 472.636719 191.234375 470.089844 193.78125 466.945312 193.78125 C 463.804688 193.78125 461.257812 191.234375 461.257812 188.09375 C 461.257812 184.949219 463.804688 182.402344 466.945312 182.402344 C 470.089844 182.402344 472.636719 184.949219 472.636719 188.09375 "/>
<path style="fill-rule:nonzero;fill:rgb(18.431373%,30.980392%,30.980392%);fill-opacity:0.901961;stroke-width:0.708661;stroke-linecap:round;stroke-linejoin:round;stroke:rgb(18.431373%,30.980392%,30.980392%);stroke-opacity:0.901961;stroke-miterlimit:10;" d="M 302.535156 205.667969 C 302.535156 208.8125 299.988281 211.359375 296.84375 211.359375 C 293.703125 211.359375 291.15625 208.8125 291.15625 205.667969 C 291.15625 202.527344 293.703125 199.980469 296.84375 199.980469 C 299.988281 199.980469 302.535156 202.527344 302.535156 205.667969 "/>
<path style="fill-rule:nonzero;fill:rgb(18.431373%,30.980392%,30.980392%);fill-opacity:0.901961;stroke-width:0.708661;stroke-linecap:round;stroke-linejoin:round;stroke:rgb(18.431373%,30.980392%,30.980392%);stroke-opacity:0.901961;stroke-miterlimit:10;" d="M 456.429688 163.527344 C 456.429688 166.667969 453.882812 169.214844 450.742188 169.214844 C 447.597656 169.214844 445.050781 166.667969 445.050781 163.527344 C 445.050781 160.386719 447.597656 157.839844 450.742188 157.839844 C 453.882812 157.839844 456.429688 160.386719 456.429688 163.527344 "/>
<path style="fill-rule:nonzero;fill:rgb(18.431373%,30.980392%,30.980392%);fill-opacity:0.901961;stroke-width:0.708661;stroke-linecap:round;stroke-linejoin:round;stroke:rgb(18.431373%,30.980392%,30.980392%);stroke-opacity:0.901961;stroke-miterlimit:10;" d="M 533.882812 73.664062 C 533.882812 76.804688 531.335938 79.351562 528.195312 79.351562 C 525.054688 79.351562 522.507812 76.804688 522.507812 73.664062 C 522.507812 70.519531 525.054688 67.972656 528.195312 67.972656 C 531.335938 67.972656 533.882812 70.519531 533.882812 73.664062 "/>
<path style="fill-rule:nonzero;fill:rgb(18.431373%,30.980392%,30.980392%);fill-opacity:0.901961;stroke-width:0.708661;stroke-linecap:round;stroke-linejoin:round;stroke:rgb(18.431373%,30.980392%,30.980392%);stroke-opacity:0.901961;stroke-miterlimit:10;" d="M 311.847656 110.066406 C 311.847656 113.207031 309.300781 115.753906 306.160156 115.753906 C 303.019531 115.753906 300.472656 113.207031 300.472656 110.066406 C 300.472656 106.921875 303.019531 104.375 306.160156 104.375 C 309.300781 104.375 311.847656 106.921875 311.847656 110.066406 "/>
<path style="fill-rule:nonzero;fill:rgb(18.431373%,30.980392%,30.980392%);fill-opacity:0.901961;stroke-width:0.708661;stroke-linecap:round;stroke-linejoin:round;stroke:rgb(18.431373%,30.980392%,30.980392%);stroke-opacity:0.901961;stroke-miterlimit:10;" d="M 595.089844 112.140625 C 595.089844 115.28125 592.542969 117.828125 589.402344 117.828125 C 586.257812 117.828125 583.710938 115.28125 583.710938 112.140625 C 583.710938 108.996094 586.257812 106.449219 589.402344 106.449219 C 592.542969 106.449219 595.089844 108.996094 595.089844 112.140625 "/>
<path style="fill-rule:nonzero;fill:rgb(18.431373%,30.980392%,30.980392%);fill-opacity:0.901961;stroke-width:0.708661;stroke-linecap:round;stroke-linejoin:round;stroke:rgb(18.431373%,30.980392%,30.980392%);stroke-opacity:0.901961;stroke-miterlimit:10;" d="M 433.832031 164.023438 C 433.832031 167.167969 431.285156 169.714844 428.140625 169.714844 C 425 169.714844 422.453125 167.167969 422.453125 164.023438 C 422.453125 160.882812 425 158.335938 428.140625 158.335938 C 431.285156 158.335938 433.832031 160.882812 433.832031 164.023438 "/>
<path style="fill-rule:nonzero;fill:rgb(18.431373%,30.980392%,30.980392%);fill-opacity:0.901961;stroke-width:0.708661;stroke-linecap:round;stroke-linejoin:round;stroke:rgb(18.431373%,30.980392%,30.980392%);stroke-opacity:0.901961;stroke-miterlimit:10;" d="M 45.898438 261.546875 C 45.898438 264.691406 43.351562 267.238281 40.207031 267.238281 C 37.066406 267.238281 34.519531 264.691406 34.519531 261.546875 C 34.519531 258.40625 37.066406 255.859375 40.207031 255.859375 C 43.351562 255.859375 45.898438 258.40625 45.898438 261.546875 "/>
<path style="fill-rule:nonzero;fill:rgb(18.431373%,30.980392%,30.980392%);fill-opacity:0.901961;stroke-width:0.708661;stroke-linecap:round;stroke-linejoin:round;stroke:rgb(18.431373%,30.980392%,30.980392%);stroke-opacity:0.901961;stroke-miterlimit:10;" d="M 79.269531 252.671875 C 79.269531 255.8125 76.722656 258.359375 73.582031 258.359375 C 70.4375 258.359375 67.890625 255.8125 67.890625 252.671875 C 67.890625 249.527344 70.4375 246.980469 73.582031 246.980469 C 76.722656 246.980469 79.269531 249.527344 79.269531 252.671875 "/>
<path style="fill-rule:nonzero;fill:rgb(18.431373%,30.980392%,30.980392%);fill-opacity:0.901961;stroke-width:0.708661;stroke-linecap:round;stroke-linejoin:round;stroke:rgb(18.431373%,30.980392%,30.980392%);stroke-opacity:0.901961;stroke-miterlimit:10;" d="M 443.785156 120.695312 C 443.785156 123.835938 441.238281 126.382812 438.097656 126.382812 C 434.953125 126.382812 432.40625 123.835938 432.40625 120.695312 C 432.40625 117.554688 434.953125 115.003906 438.097656 115.003906 C 441.238281 115.003906 443.785156 117.554688 443.785156 120.695312 "/>
<path style="fill-rule:nonzero;fill:rgb(18.431373%,30.980392%,30.980392%);fill-opacity:0.901961;stroke-width:0.708661;stroke-linecap:round;stroke-linejoin:round;stroke:rgb(18.431373%,30.980392%,30.980392%);stroke-opacity:0.901961;stroke-miterlimit:10;" d="M 297.117188 134.089844 C 297.117188 137.234375 294.570312 139.78125 291.429688 139.78125 C 288.285156 139.78125 285.738281 137.234375 285.738281 134.089844 C 285.738281 130.949219 288.285156 128.402344 291.429688 128.402344 C 294.570312 128.402344 297.117188 130.949219 297.117188 134.089844 "/>
<path style="fill-rule:nonzero;fill:rgb(18.431373%,30.980392%,30.980392%);fill-opacity:0.901961;stroke-width:0.708661;stroke-linecap:round;stroke-linejoin:round;stroke:rgb(18.431373%,30.980392%,30.980392%);stroke-opacity:0.901961;stroke-miterlimit:10;" d="M 339.175781 187.628906 C 339.175781 190.769531 336.628906 193.316406 333.488281 193.316406 C 330.347656 193.316406 327.796875 190.769531 327.796875 187.628906 C 327.796875 184.484375 330.347656 181.9375 333.488281 181.9375 C 336.628906 181.9375 339.175781 184.484375 339.175781 187.628906 "/>
<path style="fill-rule:nonzero;fill:rgb(18.431373%,30.980392%,30.980392%);fill-opacity:0.901961;stroke-width:0.708661;stroke-linecap:round;stroke-linejoin:round;stroke:rgb(18.431373%,30.980392%,30.980392%);stroke-opacity:0.901961;stroke-miterlimit:10;" d="M 414.59375 102.824219 C 414.59375 105.964844 412.046875 108.511719 408.90625 108.511719 C 405.761719 108.511719 403.214844 105.964844 403.214844 102.824219 C 403.214844 99.683594 405.761719 97.136719 408.90625 97.136719 C 412.046875 97.136719 414.59375 99.683594 414.59375 102.824219 "/>
<path style="fill-rule:nonzero;fill:rgb(18.431373%,30.980392%,30.980392%);fill-opacity:0.901961;stroke-width:0.708661;stroke-linecap:round;stroke-linejoin:round;stroke:rgb(18.431373%,30.980392%,30.980392%);stroke-opacity:0.901961;stroke-miterlimit:10;" d="M 378.796875 161.050781 C 378.796875 164.191406 376.25 166.738281 373.109375 166.738281 C 369.964844 166.738281 367.417969 164.191406 367.417969 161.050781 C 367.417969 157.90625 369.964844 155.359375 373.109375 155.359375 C 376.25 155.359375 378.796875 157.90625 378.796875 161.050781 "/>
<path style="fill-rule:nonzero;fill:rgb(18.431373%,30.980392%,30.980392%);fill-opacity:0.901961;stroke-width:0.708661;stroke-linecap:round;stroke-linejoin:round;stroke:rgb(18.431373%,30.980392%,30.980392%);stroke-opacity:0.901961;stroke-miterlimit:10;" d="M 286.746094 233.53125 C 286.746094 236.675781 284.199219 239.222656 281.054688 239.222656 C 277.914062 239.222656 275.367188 236.675781 275.367188 233.53125 C 275.367188 230.390625 277.914062 227.84375 281.054688 227.84375 C 284.199219 227.84375 286.746094 230.390625 286.746094 233.53125 "/>
<path style="fill-rule:nonzero;fill:rgb(18.431373%,30.980392%,30.980392%);fill-opacity:0.901961;stroke-width:0.708661;stroke-linecap:round;stroke-linejoin:round;stroke:rgb(18.431373%,30.980392%,30.980392%);stroke-opacity:0.901961;stroke-miterlimit:10;" d="M 246.570312 192.246094 C 246.570312 195.386719 244.023438 197.933594 240.878906 197.933594 C 237.738281 197.933594 235.191406 195.386719 235.191406 192.246094 C 235.191406 189.101562 237.738281 186.554688 240.878906 186.554688 C 244.023438 186.554688 246.570312 189.101562 246.570312 192.246094 "/>
<path style="fill-rule:nonzero;fill:rgb(18.431373%,30.980392%,30.980392%);fill-opacity:0.901961;stroke-width:0.708661;stroke-linecap:round;stroke-linejoin:round;stroke:rgb(18.431373%,30.980392%,30.980392%);stroke-opacity:0.901961;stroke-miterlimit:10;" d="M 348.957031 155.699219 C 348.957031 158.839844 346.410156 161.386719 343.269531 161.386719 C 340.125 161.386719 337.578125 158.839844 337.578125 155.699219 C 337.578125 152.558594 340.125 150.011719 343.269531 150.011719 C 346.410156 150.011719 348.957031 152.558594 348.957031 155.699219 "/>
<path style="fill-rule:nonzero;fill:rgb(18.431373%,30.980392%,30.980392%);fill-opacity:0.901961;stroke-width:0.708661;stroke-linecap:round;stroke-linejoin:round;stroke:rgb(18.431373%,30.980392%,30.980392%);stroke-opacity:0.901961;stroke-miterlimit:10;" d="M 648.152344 139.132812 C 648.152344 142.277344 645.605469 144.824219 642.464844 144.824219 C 639.320312 144.824219 636.773438 142.277344 636.773438 139.132812 C 636.773438 135.992188 639.320312 133.445312 642.464844 133.445312 C 645.605469 133.445312 648.152344 135.992188 648.152344 139.132812 "/>
<path style="fill-rule:nonzero;fill:rgb(18.431373%,30.980392%,30.980392%);fill-opacity:0.901961;stroke-width:0.708661;stroke-linecap:round;stroke-linejoin:round;stroke:rgb(18.431373%,30.980392%,30.980392%);stroke-opacity:0.901961;stroke-miterlimit:10;" d="M 587.832031 145.644531 C 587.832031 148.789062 585.285156 151.335938 582.144531 151.335938 C 579.003906 151.335938 576.457031 148.789062 576.457031 145.644531 C 576.457031 142.503906 579.003906 139.957031 582.144531 139.957031 C 585.285156 139.957031 587.832031 142.503906 587.832031 145.644531 "/>
<path style="fill-rule:nonzero;fill:rgb(18.431373%,30.980392%,30.980392%);fill-opacity:0.901961;stroke-width:0.708661;stroke-linecap:round;stroke-linejoin:round;stroke:rgb(18.431373%,30.980392%,30.980392%);stroke-opacity:0.901961;stroke-miterlimit:10;" d="M 387.289062 109.988281 C 387.289062 113.128906 384.742188 115.675781 381.601562 115.675781 C 378.457031 115.675781 375.910156 113.128906 375.910156 109.988281 C 375.910156 106.84375 378.457031 104.296875 381.601562 104.296875 C 384.742188 104.296875 387.289062 106.84375 387.289062 109.988281 "/>
<path style="fill-rule:nonzero;fill:rgb(18.431373%,30.980392%,30.980392%);fill-opacity:0.901961;stroke-width:0.708661;stroke-linecap:round;stroke-linejoin:round;stroke:rgb(18.431373%,30.980392%,30.980392%);stroke-opacity:0.901961;stroke-miterlimit:10;" d="M 347.667969 115.019531 C 347.667969 118.160156 345.121094 120.707031 341.980469 120.707031 C 338.835938 120.707031 336.289062 118.160156 336.289062 115.019531 C 336.289062 111.878906 338.835938 109.332031 341.980469 109.332031 C 345.121094 109.332031 347.667969 111.878906 347.667969 115.019531 "/>
<path style="fill-rule:nonzero;fill:rgb(18.431373%,30.980392%,30.980392%);fill-opacity:0.901961;stroke-width:0.708661;stroke-linecap:round;stroke-linejoin:round;stroke:rgb(18.431373%,30.980392%,30.980392%);stroke-opacity:0.901961;stroke-miterlimit:10;" d="M 118.714844 133.695312 C 118.714844 136.839844 116.167969 139.386719 113.027344 139.386719 C 109.882812 139.386719 107.335938 136.839844 107.335938 133.695312 C 107.335938 130.554688 109.882812 128.007812 113.027344 128.007812 C 116.167969 128.007812 118.714844 130.554688 118.714844 133.695312 "/>
<path style="fill-rule:nonzero;fill:rgb(18.431373%,30.980392%,30.980392%);fill-opacity:0.901961;stroke-width:0.708661;stroke-linecap:round;stroke-linejoin:round;stroke:rgb(18.431373%,30.980392%,30.980392%);stroke-opacity:0.901961;stroke-miterlimit:10;" d="M 359.933594 208.960938 C 359.933594 212.105469 357.386719 214.652344 354.246094 214.652344 C 351.101562 214.652344 348.554688 212.105469 348.554688 208.960938 C 348.554688 205.820312 351.101562 203.273438 354.246094 203.273438 C 357.386719 203.273438 359.933594 205.820312 359.933594 208.960938 "/>
<path style="fill-rule:nonzero;fill:rgb(18.431373%,30.980392%,30.980392%);fill-opacity:0.901961;stroke-width:0.708661;stroke-linecap:round;stroke-linejoin:round;stroke:rgb(18.431373%,30.980392%,30.980392%);stroke-opacity:0.901961;stroke-miterlimit:10;" d="M 473.492188 139.746094 C 473.492188 142.886719 470.945312 145.433594 467.800781 145.433594 C 464.660156 145.433594 462.113281 142.886719 462.113281 139.746094 C 462.113281 136.601562 464.660156 134.054688 467.800781 134.054688 C 470.945312 134.054688 473.492188 136.601562 473.492188 139.746094 "/>
<path style="fill-rule:nonzero;fill:rgb(18.431373%,30.980392%,30.980392%);fill-opacity:0.901961;stroke-width:0.708661;stroke-linecap:round;stroke-linejoin:round;stroke:rgb(18.431373%,30.980392%,30.980392%);stroke-opacity:0.901961;stroke-miterlimit:10;" d="M 202.855469 159.769531 C 202.855469 162.914062 200.308594 165.460938 197.167969 165.460938 C 194.023438 165.460938 191.476562 162.914062 191.476562 159.769531 C 191.476562 156.628906 194.023438 154.082031 197.167969 154.082031 C 200.308594 154.082031 202.855469 156.628906 202.855469 159.769531 "/>
<path style="fill-rule:nonzero;fill:rgb(18.431373%,30.980392%,30.980392%);fill-opacity:0.901961;stroke-width:0.708661;stroke-linecap:round;stroke-linejoin:round;stroke:rgb(18.431373%,30.980392%,30.980392%);stroke-opacity:0.901961;stroke-miterlimit:10;" d="M 498.703125 99.835938 C 498.703125 102.976562 496.15625 105.527344 493.011719 105.527344 C 489.871094 105.527344 487.324219 102.976562 487.324219 99.835938 C 487.324219 96.695312 489.871094 94.148438 493.011719 94.148438 C 496.15625 94.148438 498.703125 96.695312 498.703125 99.835938 "/>
<path style="fill-rule:nonzero;fill:rgb(18.431373%,30.980392%,30.980392%);fill-opacity:0.901961;stroke-width:0.708661;stroke-linecap:round;stroke-linejoin:round;stroke:rgb(18.431373%,30.980392%,30.980392%);stroke-opacity:0.901961;stroke-miterlimit:10;" d="M 507.34375 138.121094 C 507.34375 141.261719 504.796875 143.8125 501.652344 143.8125 C 498.511719 143.8125 495.964844 141.261719 495.964844 138.121094 C 495.964844 134.980469 498.511719 132.433594 501.652344 132.433594 C 504.796875 132.433594 507.34375 134.980469 507.34375 138.121094 "/>
<path style="fill-rule:nonzero;fill:rgb(18.431373%,30.980392%,30.980392%);fill-opacity:0.901961;stroke-width:0.708661;stroke-linecap:round;stroke-linejoin:round;stroke:rgb(18.431373%,30.980392%,30.980392%);stroke-opacity:0.901961;stroke-miterlimit:10;" d="M 211.710938 126 C 211.710938 129.140625 209.164062 131.6875 206.019531 131.6875 C 202.878906 131.6875 200.332031 129.140625 200.332031 126 C 200.332031 122.859375 202.878906 120.3125 206.019531 120.3125 C 209.164062 120.3125 211.710938 122.859375 211.710938 126 "/>
<path style="fill-rule:nonzero;fill:rgb(18.431373%,30.980392%,30.980392%);fill-opacity:0.901961;stroke-width:0.708661;stroke-linecap:round;stroke-linejoin:round;stroke:rgb(18.431373%,30.980392%,30.980392%);stroke-opacity:0.901961;stroke-miterlimit:10;" d="M 539.691406 19.296875 C 539.691406 22.4375 537.144531 24.984375 534.003906 24.984375 C 530.859375 24.984375 528.3125 22.4375 528.3125 19.296875 C 528.3125 16.152344 530.859375 13.605469 534.003906 13.605469 C 537.144531 13.605469 539.691406 16.152344 539.691406 19.296875 "/>
<path style="fill-rule:nonzero;fill:rgb(18.431373%,30.980392%,30.980392%);fill-opacity:0.901961;stroke-width:0.708661;stroke-linecap:round;stroke-linejoin:round;stroke:rgb(18.431373%,30.980392%,30.980392%);stroke-opacity:0.901961;stroke-miterlimit:10;" d="M 329.847656 170.847656 C 329.847656 173.988281 327.300781 176.539062 324.160156 176.539062 C 321.015625 176.539062 318.46875 173.988281 318.46875 170.847656 C 318.46875 167.707031 321.015625 165.160156 324.160156 165.160156 C 327.300781 165.160156 329.847656 167.707031 329.847656 170.847656 "/>
<path style="fill-rule:nonzero;fill:rgb(18.431373%,30.980392%,30.980392%);fill-opacity:0.901961;stroke-width:0.708661;stroke-linecap:round;stroke-linejoin:round;stroke:rgb(18.431373%,30.980392%,30.980392%);stroke-opacity:0.901961;stroke-miterlimit:10;" d="M 306.914062 221.136719 C 306.914062 224.28125 304.367188 226.828125 301.222656 226.828125 C 298.082031 226.828125 295.535156 224.28125 295.535156 221.136719 C 295.535156 217.996094 298.082031 215.449219 301.222656 215.449219 C 304.367188 215.449219 306.914062 217.996094 306.914062 221.136719 "/>
<path style="fill-rule:nonzero;fill:rgb(18.431373%,30.980392%,30.980392%);fill-opacity:0.901961;stroke-width:0.708661;stroke-linecap:round;stroke-linejoin:round;stroke:rgb(18.431373%,30.980392%,30.980392%);stroke-opacity:0.901961;stroke-miterlimit:10;" d="M 508.199219 130.746094 C 508.199219 133.890625 505.652344 136.4375 502.511719 136.4375 C 499.367188 136.4375 496.820312 133.890625 496.820312 130.746094 C 496.820312 127.605469 499.367188 125.058594 502.511719 125.058594 C 505.652344 125.058594 508.199219 127.605469 508.199219 130.746094 "/>
<path style="fill-rule:nonzero;fill:rgb(18.431373%,30.980392%,30.980392%);fill-opacity:0.901961;stroke-width:0.708661;stroke-linecap:round;stroke-linejoin:round;stroke:rgb(18.431373%,30.980392%,30.980392%);stroke-opacity:0.901961;stroke-miterlimit:10;" d="M 433.304688 216.257812 C 433.304688 219.398438 430.757812 221.945312 427.613281 221.945312 C 424.472656 221.945312 421.925781 219.398438 421.925781 216.257812 C 421.925781 213.117188 424.472656 210.570312 427.613281 210.570312 C 430.757812 210.570312 433.304688 213.117188 433.304688 216.257812 "/>
<path style="fill-rule:nonzero;fill:rgb(18.431373%,30.980392%,30.980392%);fill-opacity:0.901961;stroke-width:0.708661;stroke-linecap:round;stroke-linejoin:round;stroke:rgb(18.431373%,30.980392%,30.980392%);stroke-opacity:0.901961;stroke-miterlimit:10;" d="M 320.765625 137.898438 C 320.765625 141.042969 318.21875 143.589844 315.078125 143.589844 C 311.933594 143.589844 309.386719 141.042969 309.386719 137.898438 C 309.386719 134.757812 311.933594 132.210938 315.078125 132.210938 C 318.21875 132.210938 320.765625 134.757812 320.765625 137.898438 "/>
<path style="fill-rule:nonzero;fill:rgb(18.431373%,30.980392%,30.980392%);fill-opacity:0.901961;stroke-width:0.708661;stroke-linecap:round;stroke-linejoin:round;stroke:rgb(18.431373%,30.980392%,30.980392%);stroke-opacity:0.901961;stroke-miterlimit:10;" d="M 199.210938 238.679688 C 199.210938 241.820312 196.660156 244.367188 193.519531 244.367188 C 190.378906 244.367188 187.832031 241.820312 187.832031 238.679688 C 187.832031 235.539062 190.378906 232.992188 193.519531 232.992188 C 196.660156 232.992188 199.210938 235.539062 199.210938 238.679688 "/>
<path style="fill-rule:nonzero;fill:rgb(18.431373%,30.980392%,30.980392%);fill-opacity:0.901961;stroke-width:0.708661;stroke-linecap:round;stroke-linejoin:round;stroke:rgb(18.431373%,30.980392%,30.980392%);stroke-opacity:0.901961;stroke-miterlimit:10;" d="M 516.515625 92.847656 C 516.515625 95.992188 513.96875 98.539062 510.824219 98.539062 C 507.683594 98.539062 505.136719 95.992188 505.136719 92.847656 C 505.136719 89.707031 507.683594 87.160156 510.824219 87.160156 C 513.96875 87.160156 516.515625 89.707031 516.515625 92.847656 "/>
<path style="fill-rule:nonzero;fill:rgb(18.431373%,30.980392%,30.980392%);fill-opacity:0.901961;stroke-width:0.708661;stroke-linecap:round;stroke-linejoin:round;stroke:rgb(18.431373%,30.980392%,30.980392%);stroke-opacity:0.901961;stroke-miterlimit:10;" d="M 212.683594 205.367188 C 212.683594 208.507812 210.136719 211.054688 206.996094 211.054688 C 203.851562 211.054688 201.304688 208.507812 201.304688 205.367188 C 201.304688 202.226562 203.851562 199.679688 206.996094 199.679688 C 210.136719 199.679688 212.683594 202.226562 212.683594 205.367188 "/>
<path style="fill-rule:nonzero;fill:rgb(18.431373%,30.980392%,30.980392%);fill-opacity:0.901961;stroke-width:0.708661;stroke-linecap:round;stroke-linejoin:round;stroke:rgb(18.431373%,30.980392%,30.980392%);stroke-opacity:0.901961;stroke-miterlimit:10;" d="M 93.1875 216.960938 C 93.1875 220.101562 90.640625 222.648438 87.496094 222.648438 C 84.355469 222.648438 81.808594 220.101562 81.808594 216.960938 C 81.808594 213.816406 84.355469 211.269531 87.496094 211.269531 C 90.640625 211.269531 93.1875 213.816406 93.1875 216.960938 "/>
<path style="fill-rule:nonzero;fill:rgb(18.431373%,30.980392%,30.980392%);fill-opacity:0.901961;stroke-width:0.708661;stroke-linecap:round;stroke-linejoin:round;stroke:rgb(18.431373%,30.980392%,30.980392%);stroke-opacity:0.901961;stroke-miterlimit:10;" d="M 522 167.269531 C 522 170.410156 519.449219 172.957031 516.308594 172.957031 C 513.167969 172.957031 510.621094 170.410156 510.621094 167.269531 C 510.621094 164.128906 513.167969 161.578125 516.308594 161.578125 C 519.449219 161.578125 522 164.128906 522 167.269531 "/>
<path style="fill-rule:nonzero;fill:rgb(18.431373%,30.980392%,30.980392%);fill-opacity:0.901961;stroke-width:0.708661;stroke-linecap:round;stroke-linejoin:round;stroke:rgb(18.431373%,30.980392%,30.980392%);stroke-opacity:0.901961;stroke-miterlimit:10;" d="M 506.777344 116.375 C 506.777344 119.515625 504.230469 122.0625 501.089844 122.0625 C 497.945312 122.0625 495.398438 119.515625 495.398438 116.375 C 495.398438 113.234375 497.945312 110.6875 501.089844 110.6875 C 504.230469 110.6875 506.777344 113.234375 506.777344 116.375 "/>
<path style="fill-rule:nonzero;fill:rgb(18.431373%,30.980392%,30.980392%);fill-opacity:0.901961;stroke-width:0.708661;stroke-linecap:round;stroke-linejoin:round;stroke:rgb(18.431373%,30.980392%,30.980392%);stroke-opacity:0.901961;stroke-miterlimit:10;" d="M 462.492188 152.105469 C 462.492188 155.25 459.945312 157.796875 456.804688 157.796875 C 453.660156 157.796875 451.113281 155.25 451.113281 152.105469 C 451.113281 148.964844 453.660156 146.417969 456.804688 146.417969 C 459.945312 146.417969 462.492188 148.964844 462.492188 152.105469 "/>
<path style="fill-rule:nonzero;fill:rgb(18.431373%,30.980392%,30.980392%);fill-opacity:0.901961;stroke-width:0.708661;stroke-linecap:round;stroke-linejoin:round;stroke:rgb(18.431373%,30.980392%,30.980392%);stroke-opacity:0.901961;stroke-miterlimit:10;" d="M 28.921875 237.351562 C 28.921875 240.496094 26.375 243.042969 23.234375 243.042969 C 20.089844 243.042969 17.542969 240.496094 17.542969 237.351562 C 17.542969 234.210938 20.089844 231.664062 23.234375 231.664062 C 26.375 231.664062 28.921875 234.210938 28.921875 237.351562 "/>
<path style="fill-rule:nonzero;fill:rgb(18.431373%,30.980392%,30.980392%);fill-opacity:0.901961;stroke-width:0.708661;stroke-linecap:round;stroke-linejoin:round;stroke:rgb(18.431373%,30.980392%,30.980392%);stroke-opacity:0.901961;stroke-miterlimit:10;" d="M 336.101562 169.132812 C 336.101562 172.273438 333.554688 174.820312 330.410156 174.820312 C 327.269531 174.820312 324.722656 172.273438 324.722656 169.132812 C 324.722656 165.992188 327.269531 163.445312 330.410156 163.445312 C 333.554688 163.445312 336.101562 165.992188 336.101562 169.132812 "/>
<path style="fill-rule:nonzero;fill:rgb(18.431373%,30.980392%,30.980392%);fill-opacity:0.901961;stroke-width:0.708661;stroke-linecap:round;stroke-linejoin:round;stroke:rgb(18.431373%,30.980392%,30.980392%);stroke-opacity:0.901961;stroke-miterlimit:10;" d="M 389.742188 110.796875 C 389.742188 113.9375 387.195312 116.484375 384.050781 116.484375 C 380.910156 116.484375 378.363281 113.9375 378.363281 110.796875 C 378.363281 107.65625 380.910156 105.109375 384.050781 105.109375 C 387.195312 105.109375 389.742188 107.65625 389.742188 110.796875 "/>
<path style="fill-rule:nonzero;fill:rgb(18.431373%,30.980392%,30.980392%);fill-opacity:0.901961;stroke-width:0.708661;stroke-linecap:round;stroke-linejoin:round;stroke:rgb(18.431373%,30.980392%,30.980392%);stroke-opacity:0.901961;stroke-miterlimit:10;" d="M 555.832031 168.460938 C 555.832031 171.601562 553.285156 174.148438 550.144531 174.148438 C 547 174.148438 544.453125 171.601562 544.453125 168.460938 C 544.453125 165.316406 547 162.769531 550.144531 162.769531 C 553.285156 162.769531 555.832031 165.316406 555.832031 168.460938 "/>
<path style="fill-rule:nonzero;fill:rgb(18.431373%,30.980392%,30.980392%);fill-opacity:0.901961;stroke-width:0.708661;stroke-linecap:round;stroke-linejoin:round;stroke:rgb(18.431373%,30.980392%,30.980392%);stroke-opacity:0.901961;stroke-miterlimit:10;" d="M 422.578125 151.160156 C 422.578125 154.304688 420.03125 156.851562 416.890625 156.851562 C 413.746094 156.851562 411.199219 154.304688 411.199219 151.160156 C 411.199219 148.019531 413.746094 145.472656 416.890625 145.472656 C 420.03125 145.472656 422.578125 148.019531 422.578125 151.160156 "/>
<path style="fill-rule:nonzero;fill:rgb(18.431373%,30.980392%,30.980392%);fill-opacity:0.901961;stroke-width:0.708661;stroke-linecap:round;stroke-linejoin:round;stroke:rgb(18.431373%,30.980392%,30.980392%);stroke-opacity:0.901961;stroke-miterlimit:10;" d="M 186.675781 201.023438 C 186.675781 204.164062 184.128906 206.710938 180.988281 206.710938 C 177.847656 206.710938 175.296875 204.164062 175.296875 201.023438 C 175.296875 197.878906 177.847656 195.332031 180.988281 195.332031 C 184.128906 195.332031 186.675781 197.878906 186.675781 201.023438 "/>
<path style="fill:none;stroke-width:4.267913;stroke-linecap:butt;stroke-linejoin:round;stroke:rgb(85.098039%,1.960784%,0.784314%);stroke-opacity:0.901961;stroke-miterlimit:10;" d="M -779.320312 400.636719 L 1523.660156 -82.355469 "/>
</g>
</svg>
