<?xml version="1.0" encoding="UTF-8"?>
<svg xmlns="http://www.w3.org/2000/svg" xmlns:xlink="http://www.w3.org/1999/xlink" width="756pt" height="504pt" viewBox="0 0 756 504" version="1.1">
<g id="surface89">
<rect x="0" y="0" width="756" height="504" style="fill:rgb(100%,100%,100%);fill-opacity:1;stroke:none;"/>
<path style="fill:none;stroke-width:6.40187;stroke-linecap:butt;stroke-linejoin:round;stroke:rgb(85.098039%,1.960784%,0.784314%);stroke-opacity:0.298039;stroke-miterlimit:10;" d="M -779.320312 689.425781 L 1523.660156 -141.71875 "/>
<path style="fill:none;stroke-width:0.708661;stroke-linecap:round;stroke-linejoin:round;stroke:rgb(18.431373%,30.980392%,30.980392%);stroke-opacity:1;stroke-miterlimit:10;" d="M 375.375 232.777344 C 375.375 236.507812 372.347656 239.535156 368.617188 239.535156 C 364.886719 239.535156 361.863281 236.507812 361.863281 232.777344 C 361.863281 229.046875 364.886719 226.023438 368.617188 226.023438 C 372.347656 226.023438 375.375 229.046875 375.375 232.777344 "/>
<path style="fill-rule:nonzero;fill:rgb(18.431373%,30.980392%,30.980392%);fill-opacity:1;stroke-width:0.708661;stroke-linecap:round;stroke-linejoin:round;stroke:rgb(18.431373%,30.980392%,30.980392%);stroke-opacity:1;stroke-miterlimit:10;" d="M 198.246094 218.875 C 198.246094 222.605469 195.222656 225.628906 191.488281 225.628906 C 187.757812 225.628906 184.734375 222.605469 184.734375 218.875 C 184.734375 215.144531 187.757812 212.117188 191.488281 212.117188 C 195.222656 212.117188 198.246094 215.144531 198.246094 218.875 "/>
<path style="fill:none;stroke-width:0.708661;stroke-linecap:round;stroke-linejoin:round;stroke:rgb(18.431373%,30.980392%,30.980392%);stroke-opacity:1;stroke-miterlimit:10;" d="M 453.222656 492.222656 C 453.222656 495.953125 450.195312 498.976562 446.464844 498.976562 C 442.734375 498.976562 439.710938 495.953125 439.710938 492.222656 C 439.710938 488.488281 442.734375 485.464844 446.464844 485.464844 C 450.195312 485.464844 453.222656 488.488281 453.222656 492.222656 "/>
<path style="fill:none;stroke-width:0.708661;stroke-linecap:round;stroke-linejoin:round;stroke:rgb(18.431373%,30.980392%,30.980392%);stroke-opacity:1;stroke-miterlimit:10;" d="M 397.449219 330.417969 C 397.449219 334.148438 394.425781 337.175781 390.695312 337.175781 C 386.964844 337.175781 383.9375 334.148438 383.9375 330.417969 C 383.9375 326.6875 386.964844 323.660156 390.695312 323.660156 C 394.425781 323.660156 397.449219 326.6875 397.449219 330.417969 "/>
<path style="fill:none;stroke-width:0.708661;stroke-linecap:round;stroke-linejoin:round;stroke:rgb(18.431373%,30.980392%,30.980392%);stroke-opacity:1;stroke-miterlimit:10;" d="M 315.292969 205.230469 C 315.292969 208.964844 312.269531 211.988281 308.539062 211.988281 C 304.808594 211.988281 301.78125 208.964844 301.78125 205.230469 C 301.78125 201.5 304.808594 198.476562 308.539062 198.476562 C 312.269531 198.476562 315.292969 201.5 315.292969 205.230469 "/>
<path style="fill:none;stroke-width:0.708661;stroke-linecap:round;stroke-linejoin:round;stroke:rgb(18.431373%,30.980392%,30.980392%);stroke-opacity:1;stroke-miterlimit:10;" d="M 402.832031 301.269531 C 402.832031 305.003906 399.808594 308.027344 396.078125 308.027344 C 392.347656 308.027344 389.320312 305.003906 389.320312 301.269531 C 389.320312 297.539062 392.347656 294.515625 396.078125 294.515625 C 399.808594 294.515625 402.832031 297.539062 402.832031 301.269531 "/>
<path style="fill:none;stroke-width:0.708661;stroke-linecap:round;stroke-linejoin:round;stroke:rgb(18.431373%,30.980392%,30.980392%);stroke-opacity:1;stroke-miterlimit:10;" d="M 396.246094 207.246094 C 396.246094 210.980469 393.21875 214.003906 389.488281 214.003906 C 385.757812 214.003906 382.730469 210.980469 382.730469 207.246094 C 382.730469 203.515625 385.757812 200.492188 389.488281 200.492188 C 393.21875 200.492188 396.246094 203.515625 396.246094 207.246094 "/>
<path style="fill:none;stroke-width:0.708661;stroke-linecap:round;stroke-linejoin:round;stroke:rgb(18.431373%,30.980392%,30.980392%);stroke-opacity:1;stroke-miterlimit:10;" d="M 283.292969 404.730469 C 283.292969 408.460938 280.265625 411.488281 276.535156 411.488281 C 272.804688 411.488281 269.78125 408.460938 269.78125 404.730469 C 269.78125 401 272.804688 397.976562 276.535156 397.976562 C 280.265625 397.976562 283.292969 401 283.292969 404.730469 "/>
<path style="fill-rule:nonzero;fill:rgb(18.431373%,30.980392%,30.980392%);fill-opacity:1;stroke-width:0.708661;stroke-linecap:round;stroke-linejoin:round;stroke:rgb(18.431373%,30.980392%,30.980392%);stroke-opacity:1;stroke-miterlimit:10;" d="M 483.957031 265.496094 C 483.957031 269.226562 480.929688 272.253906 477.199219 272.253906 C 473.46875 272.253906 470.441406 269.226562 470.441406 265.496094 C 470.441406 261.765625 473.46875 258.738281 477.199219 258.738281 C 480.929688 258.738281 483.957031 261.765625 483.957031 265.496094 "/>
<path style="fill-rule:nonzero;fill:rgb(18.431373%,30.980392%,30.980392%);fill-opacity:1;stroke-width:0.708661;stroke-linecap:round;stroke-linejoin:round;stroke:rgb(18.431373%,30.980392%,30.980392%);stroke-opacity:1;stroke-miterlimit:10;" d="M 582.179688 95.546875 C 582.179688 99.277344 579.15625 102.300781 575.421875 102.300781 C 571.691406 102.300781 568.667969 99.277344 568.667969 95.546875 C 568.667969 91.8125 571.691406 88.789062 575.421875 88.789062 C 579.15625 88.789062 582.179688 91.8125 582.179688 95.546875 "/>
<path style="fill:none;stroke-width:0.708661;stroke-linecap:round;stroke-linejoin:round;stroke:rgb(18.431373%,30.980392%,30.980392%);stroke-opacity:1;stroke-miterlimit:10;" d="M 301.566406 428.800781 C 301.566406 432.53125 298.542969 435.558594 294.808594 435.558594 C 291.078125 435.558594 288.054688 432.53125 288.054688 428.800781 C 288.054688 425.070312 291.078125 422.042969 294.808594 422.042969 C 298.542969 422.042969 301.566406 425.070312 301.566406 428.800781 "/>
<path style="fill:none;stroke-width:0.708661;stroke-linecap:round;stroke-linejoin:round;stroke:rgb(18.431373%,30.980392%,30.980392%);stroke-opacity:1;stroke-miterlimit:10;" d="M 257.53125 257.964844 C 257.53125 261.695312 254.507812 264.71875 250.773438 264.71875 C 247.042969 264.71875 244.019531 261.695312 244.019531 257.964844 C 244.019531 254.230469 247.042969 251.207031 250.773438 251.207031 C 254.507812 251.207031 257.53125 254.230469 257.53125 257.964844 "/>
<path style="fill-rule:nonzero;fill:rgb(18.431373%,30.980392%,30.980392%);fill-opacity:1;stroke-width:0.708661;stroke-linecap:round;stroke-linejoin:round;stroke:rgb(18.431373%,30.980392%,30.980392%);stroke-opacity:1;stroke-miterlimit:10;" d="M 403.332031 327.328125 C 403.332031 331.058594 400.308594 334.085938 396.578125 334.085938 C 392.84375 334.085938 389.820312 331.058594 389.820312 327.328125 C 389.820312 323.597656 392.84375 320.574219 396.578125 320.574219 C 400.308594 320.574219 403.332031 323.597656 403.332031 327.328125 "/>
<path style="fill:none;stroke-width:0.708661;stroke-linecap:round;stroke-linejoin:round;stroke:rgb(18.431373%,30.980392%,30.980392%);stroke-opacity:1;stroke-miterlimit:10;" d="M 310.117188 317.972656 C 310.117188 321.703125 307.09375 324.726562 303.363281 324.726562 C 299.632812 324.726562 296.605469 321.703125 296.605469 317.972656 C 296.605469 314.242188 299.632812 311.214844 303.363281 311.214844 C 307.09375 311.214844 310.117188 314.242188 310.117188 317.972656 "/>
<path style="fill-rule:nonzero;fill:rgb(18.431373%,30.980392%,30.980392%);fill-opacity:1;stroke-width:0.708661;stroke-linecap:round;stroke-linejoin:round;stroke:rgb(18.431373%,30.980392%,30.980392%);stroke-opacity:1;stroke-miterlimit:10;" d="M 593.003906 210.347656 C 593.003906 214.078125 589.980469 217.101562 586.25 217.101562 C 582.519531 217.101562 579.492188 214.078125 579.492188 210.347656 C 579.492188 206.617188 582.519531 203.589844 586.25 203.589844 C 589.980469 203.589844 593.003906 206.617188 593.003906 210.347656 "/>
<path style="fill-rule:nonzero;fill:rgb(18.431373%,30.980392%,30.980392%);fill-opacity:1;stroke-width:0.708661;stroke-linecap:round;stroke-linejoin:round;stroke:rgb(18.431373%,30.980392%,30.980392%);stroke-opacity:1;stroke-miterlimit:10;" d="M 298.988281 161.148438 C 298.988281 164.878906 295.964844 167.90625 292.230469 167.90625 C 288.5 167.90625 285.476562 164.878906 285.476562 161.148438 C 285.476562 157.417969 288.5 154.390625 292.230469 154.390625 C 295.964844 154.390625 298.988281 157.417969 298.988281 161.148438 "/>
<path style="fill:none;stroke-width:0.708661;stroke-linecap:round;stroke-linejoin:round;stroke:rgb(18.431373%,30.980392%,30.980392%);stroke-opacity:1;stroke-miterlimit:10;" d="M 471.117188 204.839844 C 471.117188 208.570312 468.09375 211.59375 464.363281 211.59375 C 460.628906 211.59375 457.605469 208.570312 457.605469 204.839844 C 457.605469 201.109375 460.628906 198.082031 464.363281 198.082031 C 468.09375 198.082031 471.117188 201.109375 471.117188 204.839844 "/>
<path style="fill-rule:nonzero;fill:rgb(18.431373%,30.980392%,30.980392%);fill-opacity:1;stroke-width:0.708661;stroke-linecap:round;stroke-linejoin:round;stroke:rgb(18.431373%,30.980392%,30.980392%);stroke-opacity:1;stroke-miterlimit:10;" d="M 568.078125 306.621094 C 568.078125 310.351562 565.054688 313.375 561.324219 313.375 C 557.589844 313.375 554.566406 310.351562 554.566406 306.621094 C 554.566406 302.890625 557.589844 299.863281 561.324219 299.863281 C 565.054688 299.863281 568.078125 302.890625 568.078125 306.621094 "/>
<path style="fill:none;stroke-width:0.708661;stroke-linecap:round;stroke-linejoin:round;stroke:rgb(18.431373%,30.980392%,30.980392%);stroke-opacity:1;stroke-miterlimit:10;" d="M 727.863281 117.105469 C 727.863281 120.835938 724.835938 123.863281 721.105469 123.863281 C 717.375 123.863281 714.351562 120.835938 714.351562 117.105469 C 714.351562 113.375 717.375 110.351562 721.105469 110.351562 C 724.835938 110.351562 727.863281 113.375 727.863281 117.105469 "/>
<path style="fill:none;stroke-width:0.708661;stroke-linecap:round;stroke-linejoin:round;stroke:rgb(18.431373%,30.980392%,30.980392%);stroke-opacity:1;stroke-miterlimit:10;" d="M 425.90625 313.425781 C 425.90625 317.15625 422.878906 320.179688 419.148438 320.179688 C 415.417969 320.179688 412.394531 317.15625 412.394531 313.425781 C 412.394531 309.695312 415.417969 306.667969 419.148438 306.667969 C 422.878906 306.667969 425.90625 309.695312 425.90625 313.425781 "/>
<path style="fill:none;stroke-width:0.708661;stroke-linecap:round;stroke-linejoin:round;stroke:rgb(18.431373%,30.980392%,30.980392%);stroke-opacity:1;stroke-miterlimit:10;" d="M 614.90625 248.382812 C 614.90625 252.117188 611.878906 255.140625 608.148438 255.140625 C 604.417969 255.140625 601.390625 252.117188 601.390625 248.382812 C 601.390625 244.652344 604.417969 241.628906 608.148438 241.628906 C 611.878906 241.628906 614.90625 244.652344 614.90625 248.382812 "/>
<path style="fill-rule:nonzero;fill:rgb(18.431373%,30.980392%,30.980392%);fill-opacity:1;stroke-width:0.708661;stroke-linecap:round;stroke-linejoin:round;stroke:rgb(18.431373%,30.980392%,30.980392%);stroke-opacity:1;stroke-miterlimit:10;" d="M 450.296875 337.082031 C 450.296875 340.8125 447.273438 343.835938 443.539062 343.835938 C 439.808594 343.835938 436.785156 340.8125 436.785156 337.082031 C 436.785156 333.347656 439.808594 330.324219 443.539062 330.324219 C 447.273438 330.324219 450.296875 333.347656 450.296875 337.082031 "/>
<path style="fill-rule:nonzero;fill:rgb(18.431373%,30.980392%,30.980392%);fill-opacity:1;stroke-width:0.708661;stroke-linecap:round;stroke-linejoin:round;stroke:rgb(18.431373%,30.980392%,30.980392%);stroke-opacity:1;stroke-miterlimit:10;" d="M 390.984375 316.125 C 390.984375 319.855469 387.957031 322.878906 384.226562 322.878906 C 380.496094 322.878906 377.472656 319.855469 377.472656 316.125 C 377.472656 312.390625 380.496094 309.367188 384.226562 309.367188 C 387.957031 309.367188 390.984375 312.390625 390.984375 316.125 "/>
<path style="fill:none;stroke-width:0.708661;stroke-linecap:round;stroke-linejoin:round;stroke:rgb(18.431373%,30.980392%,30.980392%);stroke-opacity:1;stroke-miterlimit:10;" d="M 426.105469 291.675781 C 426.105469 295.40625 423.078125 298.429688 419.347656 298.429688 C 415.617188 298.429688 412.59375 295.40625 412.59375 291.675781 C 412.59375 287.941406 415.617188 284.917969 419.347656 284.917969 C 423.078125 284.917969 426.105469 287.941406 426.105469 291.675781 "/>
<path style="fill:none;stroke-width:0.708661;stroke-linecap:round;stroke-linejoin:round;stroke:rgb(18.431373%,30.980392%,30.980392%);stroke-opacity:1;stroke-miterlimit:10;" d="M 570.476562 259.09375 C 570.476562 262.824219 567.449219 265.851562 563.71875 265.851562 C 559.988281 265.851562 556.964844 262.824219 556.964844 259.09375 C 556.964844 255.363281 559.988281 252.339844 563.71875 252.339844 C 567.449219 252.339844 570.476562 255.363281 570.476562 259.09375 "/>
<path style="fill-rule:nonzero;fill:rgb(18.431373%,30.980392%,30.980392%);fill-opacity:1;stroke-width:0.708661;stroke-linecap:round;stroke-linejoin:round;stroke:rgb(18.431373%,30.980392%,30.980392%);stroke-opacity:1;stroke-miterlimit:10;" d="M 408.785156 280.570312 C 408.785156 284.300781 405.761719 287.328125 402.03125 287.328125 C 398.300781 287.328125 395.273438 284.300781 395.273438 280.570312 C 395.273438 276.839844 398.300781 273.816406 402.03125 273.816406 C 405.761719 273.816406 408.785156 276.839844 408.785156 280.570312 "/>
<path style="fill:none;stroke-width:0.708661;stroke-linecap:round;stroke-linejoin:round;stroke:rgb(18.431373%,30.980392%,30.980392%);stroke-opacity:1;stroke-miterlimit:10;" d="M 360.914062 203.101562 C 360.914062 206.832031 357.890625 209.855469 354.160156 209.855469 C 350.429688 209.855469 347.402344 206.832031 347.402344 203.101562 C 347.402344 199.367188 350.429688 196.34375 354.160156 196.34375 C 357.890625 196.34375 360.914062 199.367188 360.914062 203.101562 "/>
<path style="fill:none;stroke-width:0.708661;stroke-linecap:round;stroke-linejoin:round;stroke:rgb(18.431373%,30.980392%,30.980392%);stroke-opacity:1;stroke-miterlimit:10;" d="M 266.816406 295.34375 C 266.816406 299.078125 263.792969 302.101562 260.058594 302.101562 C 256.328125 302.101562 253.304688 299.078125 253.304688 295.34375 C 253.304688 291.613281 256.328125 288.589844 260.058594 288.589844 C 263.792969 288.589844 266.816406 291.613281 266.816406 295.34375 "/>
<path style="fill:none;stroke-width:0.708661;stroke-linecap:round;stroke-linejoin:round;stroke:rgb(18.431373%,30.980392%,30.980392%);stroke-opacity:1;stroke-miterlimit:10;" d="M 128.78125 435.296875 C 128.78125 439.027344 125.757812 442.050781 122.027344 442.050781 C 118.296875 442.050781 115.269531 439.027344 115.269531 435.296875 C 115.269531 431.5625 118.296875 428.539062 122.027344 428.539062 C 125.757812 428.539062 128.78125 431.5625 128.78125 435.296875 "/>
<path style="fill:none;stroke-width:0.708661;stroke-linecap:round;stroke-linejoin:round;stroke:rgb(18.431373%,30.980392%,30.980392%);stroke-opacity:1;stroke-miterlimit:10;" d="M 543.925781 68.65625 C 543.925781 72.390625 540.902344 75.414062 537.171875 75.414062 C 533.4375 75.414062 530.414062 72.390625 530.414062 68.65625 C 530.414062 64.925781 533.4375 61.902344 537.171875 61.902344 C 540.902344 61.902344 543.925781 64.925781 543.925781 68.65625 "/>
<path style="fill:none;stroke-width:0.708661;stroke-linecap:round;stroke-linejoin:round;stroke:rgb(18.431373%,30.980392%,30.980392%);stroke-opacity:1;stroke-miterlimit:10;" d="M 290.898438 276.34375 C 290.898438 280.078125 287.875 283.101562 284.140625 283.101562 C 280.410156 283.101562 277.386719 280.078125 277.386719 276.34375 C 277.386719 272.613281 280.410156 269.589844 284.140625 269.589844 C 287.875 269.589844 290.898438 272.613281 290.898438 276.34375 "/>
<path style="fill:none;stroke-width:0.708661;stroke-linecap:round;stroke-linejoin:round;stroke:rgb(18.431373%,30.980392%,30.980392%);stroke-opacity:1;stroke-miterlimit:10;" d="M 439.464844 353.527344 C 439.464844 357.261719 436.441406 360.285156 432.710938 360.285156 C 428.976562 360.285156 425.953125 357.261719 425.953125 353.527344 C 425.953125 349.796875 428.976562 346.773438 432.710938 346.773438 C 436.441406 346.773438 439.464844 349.796875 439.464844 353.527344 "/>
<path style="fill-rule:nonzero;fill:rgb(18.431373%,30.980392%,30.980392%);fill-opacity:1;stroke-width:0.708661;stroke-linecap:round;stroke-linejoin:round;stroke:rgb(18.431373%,30.980392%,30.980392%);stroke-opacity:1;stroke-miterlimit:10;" d="M 486.0625 204.847656 C 486.0625 208.578125 483.039062 211.601562 479.308594 211.601562 C 475.574219 211.601562 472.550781 208.578125 472.550781 204.847656 C 472.550781 201.117188 475.574219 198.089844 479.308594 198.089844 C 483.039062 198.089844 486.0625 201.117188 486.0625 204.847656 "/>
<path style="fill-rule:nonzero;fill:rgb(18.431373%,30.980392%,30.980392%);fill-opacity:1;stroke-width:0.708661;stroke-linecap:round;stroke-linejoin:round;stroke:rgb(18.431373%,30.980392%,30.980392%);stroke-opacity:1;stroke-miterlimit:10;" d="M 512.273438 206.601562 C 512.273438 210.335938 509.246094 213.359375 505.515625 213.359375 C 501.785156 213.359375 498.757812 210.335938 498.757812 206.601562 C 498.757812 202.871094 501.785156 199.847656 505.515625 199.847656 C 509.246094 199.847656 512.273438 202.871094 512.273438 206.601562 "/>
<path style="fill:none;stroke-width:0.708661;stroke-linecap:round;stroke-linejoin:round;stroke:rgb(18.431373%,30.980392%,30.980392%);stroke-opacity:1;stroke-miterlimit:10;" d="M 255.222656 404.710938 C 255.222656 408.441406 252.195312 411.46875 248.464844 411.46875 C 244.734375 411.46875 241.707031 408.441406 241.707031 404.710938 C 241.707031 400.980469 244.734375 397.953125 248.464844 397.953125 C 252.195312 397.953125 255.222656 400.980469 255.222656 404.710938 "/>
<path style="fill:none;stroke-width:0.708661;stroke-linecap:round;stroke-linejoin:round;stroke:rgb(18.431373%,30.980392%,30.980392%);stroke-opacity:1;stroke-miterlimit:10;" d="M 655.269531 23.4375 C 655.269531 27.171875 652.246094 30.195312 648.515625 30.195312 C 644.78125 30.195312 641.757812 27.171875 641.757812 23.4375 C 641.757812 19.707031 644.78125 16.683594 648.515625 16.683594 C 652.246094 16.683594 655.269531 19.707031 655.269531 23.4375 "/>
<path style="fill:none;stroke-width:0.708661;stroke-linecap:round;stroke-linejoin:round;stroke:rgb(18.431373%,30.980392%,30.980392%);stroke-opacity:1;stroke-miterlimit:10;" d="M 656.773438 150.976562 C 656.773438 154.707031 653.746094 157.730469 650.015625 157.730469 C 646.285156 157.730469 643.257812 154.707031 643.257812 150.976562 C 643.257812 147.242188 646.285156 144.21875 650.015625 144.21875 C 653.746094 144.21875 656.773438 147.242188 656.773438 150.976562 "/>
<path style="fill:none;stroke-width:0.708661;stroke-linecap:round;stroke-linejoin:round;stroke:rgb(18.431373%,30.980392%,30.980392%);stroke-opacity:1;stroke-miterlimit:10;" d="M 581.621094 162.148438 C 581.621094 165.878906 578.597656 168.902344 574.867188 168.902344 C 571.136719 168.902344 568.109375 165.878906 568.109375 162.148438 C 568.109375 158.414062 571.136719 155.390625 574.867188 155.390625 C 578.597656 155.390625 581.621094 158.414062 581.621094 162.148438 "/>
<path style="fill-rule:nonzero;fill:rgb(18.431373%,30.980392%,30.980392%);fill-opacity:1;stroke-width:0.708661;stroke-linecap:round;stroke-linejoin:round;stroke:rgb(18.431373%,30.980392%,30.980392%);stroke-opacity:1;stroke-miterlimit:10;" d="M 479.4375 280.234375 C 479.4375 283.964844 476.410156 286.988281 472.679688 286.988281 C 468.949219 286.988281 465.925781 283.964844 465.925781 280.234375 C 465.925781 276.503906 468.949219 273.476562 472.679688 273.476562 C 476.410156 273.476562 479.4375 276.503906 479.4375 280.234375 "/>
<path style="fill:none;stroke-width:0.708661;stroke-linecap:round;stroke-linejoin:round;stroke:rgb(18.431373%,30.980392%,30.980392%);stroke-opacity:1;stroke-miterlimit:10;" d="M 393.773438 247.050781 C 393.773438 250.78125 390.75 253.804688 387.019531 253.804688 C 383.289062 253.804688 380.261719 250.78125 380.261719 247.050781 C 380.261719 243.316406 383.289062 240.292969 387.019531 240.292969 C 390.75 240.292969 393.773438 243.316406 393.773438 247.050781 "/>
<path style="fill-rule:nonzero;fill:rgb(18.431373%,30.980392%,30.980392%);fill-opacity:1;stroke-width:0.708661;stroke-linecap:round;stroke-linejoin:round;stroke:rgb(18.431373%,30.980392%,30.980392%);stroke-opacity:1;stroke-miterlimit:10;" d="M 480.636719 212 C 480.636719 215.730469 477.609375 218.757812 473.878906 218.757812 C 470.148438 218.757812 467.121094 215.730469 467.121094 212 C 467.121094 208.269531 470.148438 205.242188 473.878906 205.242188 C 477.609375 205.242188 480.636719 208.269531 480.636719 212 "/>
<path style="fill:none;stroke-width:0.708661;stroke-linecap:round;stroke-linejoin:round;stroke:rgb(18.431373%,30.980392%,30.980392%);stroke-opacity:1;stroke-miterlimit:10;" d="M 511.210938 170.476562 C 511.210938 174.207031 508.183594 177.234375 504.453125 177.234375 C 500.722656 177.234375 497.699219 174.207031 497.699219 170.476562 C 497.699219 166.746094 500.722656 163.71875 504.453125 163.71875 C 508.183594 163.71875 511.210938 166.746094 511.210938 170.476562 "/>
<path style="fill-rule:nonzero;fill:rgb(18.431373%,30.980392%,30.980392%);fill-opacity:1;stroke-width:0.708661;stroke-linecap:round;stroke-linejoin:round;stroke:rgb(18.431373%,30.980392%,30.980392%);stroke-opacity:1;stroke-miterlimit:10;" d="M 555.632812 283.078125 C 555.632812 286.808594 552.605469 289.832031 548.875 289.832031 C 545.144531 289.832031 542.117188 286.808594 542.117188 283.078125 C 542.117188 279.34375 545.144531 276.320312 548.875 276.320312 C 552.605469 276.320312 555.632812 279.34375 555.632812 283.078125 "/>
<path style="fill-rule:nonzero;fill:rgb(18.431373%,30.980392%,30.980392%);fill-opacity:1;stroke-width:0.708661;stroke-linecap:round;stroke-linejoin:round;stroke:rgb(18.431373%,30.980392%,30.980392%);stroke-opacity:1;stroke-miterlimit:10;" d="M 331.941406 276.910156 C 331.941406 280.640625 328.917969 283.664062 325.1875 283.664062 C 321.453125 283.664062 318.429688 280.640625 318.429688 276.910156 C 318.429688 273.179688 321.453125 270.152344 325.1875 270.152344 C 328.917969 270.152344 331.941406 273.179688 331.941406 276.910156 "/>
<path style="fill:none;stroke-width:0.708661;stroke-linecap:round;stroke-linejoin:round;stroke:rgb(18.431373%,30.980392%,30.980392%);stroke-opacity:1;stroke-miterlimit:10;" d="M 341.550781 314.074219 C 341.550781 317.804688 338.527344 320.832031 334.796875 320.832031 C 331.0625 320.832031 328.039062 317.804688 328.039062 314.074219 C 328.039062 310.34375 331.0625 307.316406 334.796875 307.316406 C 338.527344 307.316406 341.550781 310.34375 341.550781 314.074219 "/>
<path style="fill:none;stroke-width:0.708661;stroke-linecap:round;stroke-linejoin:round;stroke:rgb(18.431373%,30.980392%,30.980392%);stroke-opacity:1;stroke-miterlimit:10;" d="M 360.597656 318.480469 C 360.597656 322.210938 357.570312 325.234375 353.839844 325.234375 C 350.109375 325.234375 347.082031 322.210938 347.082031 318.480469 C 347.082031 314.746094 350.109375 311.722656 353.839844 311.722656 C 357.570312 311.722656 360.597656 314.746094 360.597656 318.480469 "/>
<path style="fill-rule:nonzero;fill:rgb(18.431373%,30.980392%,30.980392%);fill-opacity:1;stroke-width:0.708661;stroke-linecap:round;stroke-linejoin:round;stroke:rgb(18.431373%,30.980392%,30.980392%);stroke-opacity:1;stroke-miterlimit:10;" d="M 242.738281 269.53125 C 242.738281 273.261719 239.710938 276.285156 235.980469 276.285156 C 232.25 276.285156 229.222656 273.261719 229.222656 269.53125 C 229.222656 265.796875 232.25 262.773438 235.980469 262.773438 C 239.710938 262.773438 242.738281 265.796875 242.738281 269.53125 "/>
<path style="fill:none;stroke-width:0.708661;stroke-linecap:round;stroke-linejoin:round;stroke:rgb(18.431373%,30.980392%,30.980392%);stroke-opacity:1;stroke-miterlimit:10;" d="M 467.671875 154.019531 C 467.671875 157.75 464.648438 160.777344 460.917969 160.777344 C 457.183594 160.777344 454.160156 157.75 454.160156 154.019531 C 454.160156 150.289062 457.183594 147.261719 460.917969 147.261719 C 464.648438 147.261719 467.671875 150.289062 467.671875 154.019531 "/>
<path style="fill:none;stroke-width:0.708661;stroke-linecap:round;stroke-linejoin:round;stroke:rgb(18.431373%,30.980392%,30.980392%);stroke-opacity:1;stroke-miterlimit:10;" d="M 475.1875 251.902344 C 475.1875 255.632812 472.164062 258.660156 468.433594 258.660156 C 464.703125 258.660156 461.675781 255.632812 461.675781 251.902344 C 461.675781 248.171875 464.703125 245.148438 468.433594 245.148438 C 472.164062 245.148438 475.1875 248.171875 475.1875 251.902344 "/>
<path style="fill-rule:nonzero;fill:rgb(18.431373%,30.980392%,30.980392%);fill-opacity:1;stroke-width:0.708661;stroke-linecap:round;stroke-linejoin:round;stroke:rgb(18.431373%,30.980392%,30.980392%);stroke-opacity:1;stroke-miterlimit:10;" d="M 621.328125 232.976562 C 621.328125 236.710938 618.304688 239.734375 614.574219 239.734375 C 610.839844 239.734375 607.816406 236.710938 607.816406 232.976562 C 607.816406 229.246094 610.839844 226.222656 614.574219 226.222656 C 618.304688 226.222656 621.328125 229.246094 621.328125 232.976562 "/>
<path style="fill:none;stroke-width:0.708661;stroke-linecap:round;stroke-linejoin:round;stroke:rgb(18.431373%,30.980392%,30.980392%);stroke-opacity:1;stroke-miterlimit:10;" d="M 313.070312 275.546875 C 313.070312 279.277344 310.046875 282.300781 306.316406 282.300781 C 302.582031 282.300781 299.558594 279.277344 299.558594 275.546875 C 299.558594 271.8125 302.582031 268.789062 306.316406 268.789062 C 310.046875 268.789062 313.070312 271.8125 313.070312 275.546875 "/>
<path style="fill:none;stroke-width:0.708661;stroke-linecap:round;stroke-linejoin:round;stroke:rgb(18.431373%,30.980392%,30.980392%);stroke-opacity:1;stroke-miterlimit:10;" d="M 239.515625 376.695312 C 239.515625 380.425781 236.492188 383.449219 232.761719 383.449219 C 229.027344 383.449219 226.003906 380.425781 226.003906 376.695312 C 226.003906 372.964844 229.027344 369.9375 232.761719 369.9375 C 236.492188 369.9375 239.515625 372.964844 239.515625 376.695312 "/>
<path style="fill:none;stroke-width:0.708661;stroke-linecap:round;stroke-linejoin:round;stroke:rgb(18.431373%,30.980392%,30.980392%);stroke-opacity:1;stroke-miterlimit:10;" d="M 548.179688 245.371094 C 548.179688 249.101562 545.15625 252.125 541.425781 252.125 C 537.695312 252.125 534.667969 249.101562 534.667969 245.371094 C 534.667969 241.636719 537.695312 238.613281 541.425781 238.613281 C 545.15625 238.613281 548.179688 241.636719 548.179688 245.371094 "/>
<path style="fill:none;stroke-width:0.708661;stroke-linecap:round;stroke-linejoin:round;stroke:rgb(18.431373%,30.980392%,30.980392%);stroke-opacity:1;stroke-miterlimit:10;" d="M 473.703125 323.671875 C 473.703125 327.402344 470.679688 330.429688 466.945312 330.429688 C 463.214844 330.429688 460.191406 327.402344 460.191406 323.671875 C 460.191406 319.941406 463.214844 316.914062 466.945312 316.914062 C 470.679688 316.914062 473.703125 319.941406 473.703125 323.671875 "/>
<path style="fill:none;stroke-width:0.708661;stroke-linecap:round;stroke-linejoin:round;stroke:rgb(18.431373%,30.980392%,30.980392%);stroke-opacity:1;stroke-miterlimit:10;" d="M 303.601562 353.917969 C 303.601562 357.648438 300.574219 360.675781 296.84375 360.675781 C 293.113281 360.675781 290.089844 357.648438 290.089844 353.917969 C 290.089844 350.1875 293.113281 347.164062 296.84375 347.164062 C 300.574219 347.164062 303.601562 350.1875 303.601562 353.917969 "/>
<path style="fill:none;stroke-width:0.708661;stroke-linecap:round;stroke-linejoin:round;stroke:rgb(18.431373%,30.980392%,30.980392%);stroke-opacity:1;stroke-miterlimit:10;" d="M 457.496094 281.402344 C 457.496094 285.132812 454.472656 288.15625 450.742188 288.15625 C 447.007812 288.15625 443.984375 285.132812 443.984375 281.402344 C 443.984375 277.667969 447.007812 274.644531 450.742188 274.644531 C 454.472656 274.644531 457.496094 277.667969 457.496094 281.402344 "/>
<path style="fill-rule:nonzero;fill:rgb(18.431373%,30.980392%,30.980392%);fill-opacity:1;stroke-width:0.708661;stroke-linecap:round;stroke-linejoin:round;stroke:rgb(18.431373%,30.980392%,30.980392%);stroke-opacity:1;stroke-miterlimit:10;" d="M 534.953125 126.761719 C 534.953125 130.492188 531.925781 133.515625 528.195312 133.515625 C 524.464844 133.515625 521.4375 130.492188 521.4375 126.761719 C 521.4375 123.027344 524.464844 120.003906 528.195312 120.003906 C 531.925781 120.003906 534.953125 123.027344 534.953125 126.761719 "/>
<path style="fill:none;stroke-width:0.708661;stroke-linecap:round;stroke-linejoin:round;stroke:rgb(18.431373%,30.980392%,30.980392%);stroke-opacity:1;stroke-miterlimit:10;" d="M 312.917969 189.402344 C 312.917969 193.132812 309.890625 196.160156 306.160156 196.160156 C 302.429688 196.160156 299.402344 193.132812 299.402344 189.402344 C 299.402344 185.671875 302.429688 182.648438 306.160156 182.648438 C 309.890625 182.648438 312.917969 185.671875 312.917969 189.402344 "/>
<path style="fill-rule:nonzero;fill:rgb(18.431373%,30.980392%,30.980392%);fill-opacity:1;stroke-width:0.708661;stroke-linecap:round;stroke-linejoin:round;stroke:rgb(18.431373%,30.980392%,30.980392%);stroke-opacity:1;stroke-miterlimit:10;" d="M 596.15625 192.972656 C 596.15625 196.703125 593.132812 199.726562 589.402344 199.726562 C 585.667969 199.726562 582.644531 196.703125 582.644531 192.972656 C 582.644531 189.238281 585.667969 186.214844 589.402344 186.214844 C 593.132812 186.214844 596.15625 189.238281 596.15625 192.972656 "/>
<path style="fill:none;stroke-width:0.708661;stroke-linecap:round;stroke-linejoin:round;stroke:rgb(18.431373%,30.980392%,30.980392%);stroke-opacity:1;stroke-miterlimit:10;" d="M 434.898438 282.257812 C 434.898438 285.988281 431.875 289.011719 428.140625 289.011719 C 424.410156 289.011719 421.386719 285.988281 421.386719 282.257812 C 421.386719 278.527344 424.410156 275.5 428.140625 275.5 C 431.875 275.5 434.898438 278.527344 434.898438 282.257812 "/>
<path style="fill-rule:nonzero;fill:rgb(18.431373%,30.980392%,30.980392%);fill-opacity:1;stroke-width:0.708661;stroke-linecap:round;stroke-linejoin:round;stroke:rgb(18.431373%,30.980392%,30.980392%);stroke-opacity:1;stroke-miterlimit:10;" d="M 46.964844 450.078125 C 46.964844 453.808594 43.941406 456.832031 40.207031 456.832031 C 36.476562 456.832031 33.453125 453.808594 33.453125 450.078125 C 33.453125 446.34375 36.476562 443.320312 40.207031 443.320312 C 43.941406 443.320312 46.964844 446.34375 46.964844 450.078125 "/>
<path style="fill:none;stroke-width:0.708661;stroke-linecap:round;stroke-linejoin:round;stroke:rgb(18.431373%,30.980392%,30.980392%);stroke-opacity:1;stroke-miterlimit:10;" d="M 80.335938 434.800781 C 80.335938 438.53125 77.3125 441.558594 73.582031 441.558594 C 69.847656 441.558594 66.824219 438.53125 66.824219 434.800781 C 66.824219 431.070312 69.847656 428.042969 73.582031 428.042969 C 77.3125 428.042969 80.335938 431.070312 80.335938 434.800781 "/>
<path style="fill-rule:nonzero;fill:rgb(18.431373%,30.980392%,30.980392%);fill-opacity:1;stroke-width:0.708661;stroke-linecap:round;stroke-linejoin:round;stroke:rgb(18.431373%,30.980392%,30.980392%);stroke-opacity:1;stroke-miterlimit:10;" d="M 444.851562 207.695312 C 444.851562 211.425781 441.828125 214.449219 438.097656 214.449219 C 434.363281 214.449219 431.339844 211.425781 431.339844 207.695312 C 431.339844 203.960938 434.363281 200.9375 438.097656 200.9375 C 441.828125 200.9375 444.851562 203.960938 444.851562 207.695312 "/>
<path style="fill:none;stroke-width:0.708661;stroke-linecap:round;stroke-linejoin:round;stroke:rgb(18.431373%,30.980392%,30.980392%);stroke-opacity:1;stroke-miterlimit:10;" d="M 298.183594 230.746094 C 298.183594 234.476562 295.160156 237.503906 291.429688 237.503906 C 287.699219 237.503906 284.671875 234.476562 284.671875 230.746094 C 284.671875 227.015625 287.699219 223.992188 291.429688 223.992188 C 295.160156 223.992188 298.183594 227.015625 298.183594 230.746094 "/>
<path style="fill:none;stroke-width:0.708661;stroke-linecap:round;stroke-linejoin:round;stroke:rgb(18.431373%,30.980392%,30.980392%);stroke-opacity:1;stroke-miterlimit:10;" d="M 340.242188 322.875 C 340.242188 326.605469 337.21875 329.628906 333.488281 329.628906 C 329.757812 329.628906 326.730469 326.605469 326.730469 322.875 C 326.730469 319.144531 329.757812 316.117188 333.488281 316.117188 C 337.21875 316.117188 340.242188 319.144531 340.242188 322.875 "/>
<path style="fill:none;stroke-width:0.708661;stroke-linecap:round;stroke-linejoin:round;stroke:rgb(18.431373%,30.980392%,30.980392%);stroke-opacity:1;stroke-miterlimit:10;" d="M 415.660156 176.941406 C 415.660156 180.671875 412.636719 183.699219 408.90625 183.699219 C 405.175781 183.699219 402.148438 180.671875 402.148438 176.941406 C 402.148438 173.210938 405.175781 170.183594 408.90625 170.183594 C 412.636719 170.183594 415.660156 173.210938 415.660156 176.941406 "/>
<path style="fill:none;stroke-width:0.708661;stroke-linecap:round;stroke-linejoin:round;stroke:rgb(18.431373%,30.980392%,30.980392%);stroke-opacity:1;stroke-miterlimit:10;" d="M 379.863281 277.136719 C 379.863281 280.867188 376.839844 283.890625 373.109375 283.890625 C 369.378906 283.890625 366.351562 280.867188 366.351562 277.136719 C 366.351562 273.40625 369.378906 270.378906 373.109375 270.378906 C 376.839844 270.378906 379.863281 273.40625 379.863281 277.136719 "/>
<path style="fill-rule:nonzero;fill:rgb(18.431373%,30.980392%,30.980392%);fill-opacity:1;stroke-width:0.708661;stroke-linecap:round;stroke-linejoin:round;stroke:rgb(18.431373%,30.980392%,30.980392%);stroke-opacity:1;stroke-miterlimit:10;" d="M 287.8125 401.867188 C 287.8125 405.597656 284.785156 408.625 281.054688 408.625 C 277.324219 408.625 274.300781 405.597656 274.300781 401.867188 C 274.300781 398.136719 277.324219 395.113281 281.054688 395.113281 C 284.785156 395.113281 287.8125 398.136719 287.8125 401.867188 "/>
<path style="fill:none;stroke-width:0.708661;stroke-linecap:round;stroke-linejoin:round;stroke:rgb(18.431373%,30.980392%,30.980392%);stroke-opacity:1;stroke-miterlimit:10;" d="M 247.636719 330.820312 C 247.636719 334.550781 244.609375 337.574219 240.878906 337.574219 C 237.148438 337.574219 234.125 334.550781 234.125 330.820312 C 234.125 327.089844 237.148438 324.0625 240.878906 324.0625 C 244.609375 324.0625 247.636719 327.089844 247.636719 330.820312 "/>
<path style="fill:none;stroke-width:0.708661;stroke-linecap:round;stroke-linejoin:round;stroke:rgb(18.431373%,30.980392%,30.980392%);stroke-opacity:1;stroke-miterlimit:10;" d="M 350.023438 267.929688 C 350.023438 271.660156 347 274.6875 343.269531 274.6875 C 339.535156 274.6875 336.511719 271.660156 336.511719 267.929688 C 336.511719 264.199219 339.535156 261.171875 343.269531 261.171875 C 347 261.171875 350.023438 264.199219 350.023438 267.929688 "/>
<path style="fill-rule:nonzero;fill:rgb(18.431373%,30.980392%,30.980392%);fill-opacity:1;stroke-width:0.708661;stroke-linecap:round;stroke-linejoin:round;stroke:rgb(18.431373%,30.980392%,30.980392%);stroke-opacity:1;stroke-miterlimit:10;" d="M 649.21875 239.425781 C 649.21875 243.15625 646.195312 246.179688 642.464844 246.179688 C 638.730469 246.179688 635.707031 243.15625 635.707031 239.425781 C 635.707031 235.691406 638.730469 232.667969 642.464844 232.667969 C 646.195312 232.667969 649.21875 235.691406 649.21875 239.425781 "/>
<path style="fill:none;stroke-width:0.708661;stroke-linecap:round;stroke-linejoin:round;stroke:rgb(18.431373%,30.980392%,30.980392%);stroke-opacity:1;stroke-miterlimit:10;" d="M 588.902344 250.628906 C 588.902344 254.359375 585.875 257.386719 582.144531 257.386719 C 578.414062 257.386719 575.386719 254.359375 575.386719 250.628906 C 575.386719 246.898438 578.414062 243.875 582.144531 243.875 C 585.875 243.875 588.902344 246.898438 588.902344 250.628906 "/>
<path style="fill:none;stroke-width:0.708661;stroke-linecap:round;stroke-linejoin:round;stroke:rgb(18.431373%,30.980392%,30.980392%);stroke-opacity:1;stroke-miterlimit:10;" d="M 388.355469 189.265625 C 388.355469 193 385.332031 196.023438 381.601562 196.023438 C 377.867188 196.023438 374.84375 193 374.84375 189.265625 C 374.84375 185.535156 377.867188 182.511719 381.601562 182.511719 C 385.332031 182.511719 388.355469 185.535156 388.355469 189.265625 "/>
<path style="fill-rule:nonzero;fill:rgb(18.431373%,30.980392%,30.980392%);fill-opacity:1;stroke-width:0.708661;stroke-linecap:round;stroke-linejoin:round;stroke:rgb(18.431373%,30.980392%,30.980392%);stroke-opacity:1;stroke-miterlimit:10;" d="M 348.734375 197.925781 C 348.734375 201.660156 345.710938 204.683594 341.980469 204.683594 C 338.246094 204.683594 335.222656 201.660156 335.222656 197.925781 C 335.222656 194.195312 338.246094 191.171875 341.980469 191.171875 C 345.710938 191.171875 348.734375 194.195312 348.734375 197.925781 "/>
<path style="fill:none;stroke-width:0.708661;stroke-linecap:round;stroke-linejoin:round;stroke:rgb(18.431373%,30.980392%,30.980392%);stroke-opacity:1;stroke-miterlimit:10;" d="M 119.78125 230.066406 C 119.78125 233.800781 116.757812 236.824219 113.027344 236.824219 C 109.292969 236.824219 106.269531 233.800781 106.269531 230.066406 C 106.269531 226.335938 109.292969 223.3125 113.027344 223.3125 C 116.757812 223.3125 119.78125 226.335938 119.78125 230.066406 "/>
<path style="fill:none;stroke-width:0.708661;stroke-linecap:round;stroke-linejoin:round;stroke:rgb(18.431373%,30.980392%,30.980392%);stroke-opacity:1;stroke-miterlimit:10;" d="M 361 359.585938 C 361 363.316406 357.976562 366.339844 354.246094 366.339844 C 350.511719 366.339844 347.488281 363.316406 347.488281 359.585938 C 347.488281 355.855469 350.511719 352.828125 354.246094 352.828125 C 357.976562 352.828125 361 355.855469 361 359.585938 "/>
<path style="fill:none;stroke-width:0.708661;stroke-linecap:round;stroke-linejoin:round;stroke:rgb(18.431373%,30.980392%,30.980392%);stroke-opacity:1;stroke-miterlimit:10;" d="M 474.558594 240.472656 C 474.558594 244.207031 471.53125 247.230469 467.800781 247.230469 C 464.070312 247.230469 461.046875 244.207031 461.046875 240.472656 C 461.046875 236.742188 464.070312 233.71875 467.800781 233.71875 C 471.53125 233.71875 474.558594 236.742188 474.558594 240.472656 "/>
<path style="fill:none;stroke-width:0.708661;stroke-linecap:round;stroke-linejoin:round;stroke:rgb(18.431373%,30.980392%,30.980392%);stroke-opacity:1;stroke-miterlimit:10;" d="M 203.921875 274.9375 C 203.921875 278.667969 200.898438 281.691406 197.167969 281.691406 C 193.4375 281.691406 190.410156 278.667969 190.410156 274.9375 C 190.410156 271.207031 193.4375 268.179688 197.167969 268.179688 C 200.898438 268.179688 203.921875 271.207031 203.921875 274.9375 "/>
<path style="fill-rule:nonzero;fill:rgb(18.431373%,30.980392%,30.980392%);fill-opacity:1;stroke-width:0.708661;stroke-linecap:round;stroke-linejoin:round;stroke:rgb(18.431373%,30.980392%,30.980392%);stroke-opacity:1;stroke-miterlimit:10;" d="M 499.769531 171.800781 C 499.769531 175.53125 496.742188 178.554688 493.011719 178.554688 C 489.28125 178.554688 486.257812 175.53125 486.257812 171.800781 C 486.257812 168.070312 489.28125 165.042969 493.011719 165.042969 C 496.742188 165.042969 499.769531 168.070312 499.769531 171.800781 "/>
<path style="fill:none;stroke-width:0.708661;stroke-linecap:round;stroke-linejoin:round;stroke:rgb(18.431373%,30.980392%,30.980392%);stroke-opacity:1;stroke-miterlimit:10;" d="M 508.410156 237.683594 C 508.410156 241.414062 505.386719 244.4375 501.652344 244.4375 C 497.921875 244.4375 494.898438 241.414062 494.898438 237.683594 C 494.898438 233.949219 497.921875 230.925781 501.652344 230.925781 C 505.386719 230.925781 508.410156 233.949219 508.410156 237.683594 "/>
<path style="fill:none;stroke-width:0.708661;stroke-linecap:round;stroke-linejoin:round;stroke:rgb(18.431373%,30.980392%,30.980392%);stroke-opacity:1;stroke-miterlimit:10;" d="M 212.777344 216.824219 C 212.777344 220.554688 209.753906 223.578125 206.019531 223.578125 C 202.289062 223.578125 199.265625 220.554688 199.265625 216.824219 C 199.265625 213.09375 202.289062 210.066406 206.019531 210.066406 C 209.753906 210.066406 212.777344 213.09375 212.777344 216.824219 "/>
<path style="fill:none;stroke-width:0.708661;stroke-linecap:round;stroke-linejoin:round;stroke:rgb(18.431373%,30.980392%,30.980392%);stroke-opacity:1;stroke-miterlimit:10;" d="M 540.757812 33.203125 C 540.757812 36.9375 537.734375 39.960938 534.003906 39.960938 C 530.273438 39.960938 527.246094 36.9375 527.246094 33.203125 C 527.246094 29.472656 530.273438 26.449219 534.003906 26.449219 C 537.734375 26.449219 540.757812 29.472656 540.757812 33.203125 "/>
<path style="fill:none;stroke-width:0.708661;stroke-linecap:round;stroke-linejoin:round;stroke:rgb(18.431373%,30.980392%,30.980392%);stroke-opacity:1;stroke-miterlimit:10;" d="M 330.914062 294 C 330.914062 297.730469 327.890625 300.753906 324.160156 300.753906 C 320.429688 300.753906 317.402344 297.730469 317.402344 294 C 317.402344 290.265625 320.429688 287.242188 324.160156 287.242188 C 327.890625 287.242188 330.914062 290.265625 330.914062 294 "/>
<path style="fill:none;stroke-width:0.708661;stroke-linecap:round;stroke-linejoin:round;stroke:rgb(18.431373%,30.980392%,30.980392%);stroke-opacity:1;stroke-miterlimit:10;" d="M 307.980469 380.539062 C 307.980469 384.269531 304.957031 387.292969 301.222656 387.292969 C 297.492188 387.292969 294.46875 384.269531 294.46875 380.539062 C 294.46875 376.804688 297.492188 373.78125 301.222656 373.78125 C 304.957031 373.78125 307.980469 376.804688 307.980469 380.539062 "/>
<path style="fill:none;stroke-width:0.708661;stroke-linecap:round;stroke-linejoin:round;stroke:rgb(18.431373%,30.980392%,30.980392%);stroke-opacity:1;stroke-miterlimit:10;" d="M 509.265625 224.992188 C 509.265625 228.722656 506.242188 231.75 502.511719 231.75 C 498.777344 231.75 495.753906 228.722656 495.753906 224.992188 C 495.753906 221.261719 498.777344 218.238281 502.511719 218.238281 C 506.242188 218.238281 509.265625 221.261719 509.265625 224.992188 "/>
<path style="fill-rule:nonzero;fill:rgb(18.431373%,30.980392%,30.980392%);fill-opacity:1;stroke-width:0.708661;stroke-linecap:round;stroke-linejoin:round;stroke:rgb(18.431373%,30.980392%,30.980392%);stroke-opacity:1;stroke-miterlimit:10;" d="M 434.371094 372.140625 C 434.371094 375.871094 431.347656 378.894531 427.613281 378.894531 C 423.882812 378.894531 420.859375 375.871094 420.859375 372.140625 C 420.859375 368.410156 423.882812 365.382812 427.613281 365.382812 C 431.347656 365.382812 434.371094 368.410156 434.371094 372.140625 "/>
<path style="fill:none;stroke-width:0.708661;stroke-linecap:round;stroke-linejoin:round;stroke:rgb(18.431373%,30.980392%,30.980392%);stroke-opacity:1;stroke-miterlimit:10;" d="M 321.832031 237.300781 C 321.832031 241.03125 318.808594 244.054688 315.078125 244.054688 C 311.34375 244.054688 308.320312 241.03125 308.320312 237.300781 C 308.320312 233.566406 311.34375 230.542969 315.078125 230.542969 C 318.808594 230.542969 321.832031 233.566406 321.832031 237.300781 "/>
<path style="fill:none;stroke-width:0.708661;stroke-linecap:round;stroke-linejoin:round;stroke:rgb(18.431373%,30.980392%,30.980392%);stroke-opacity:1;stroke-miterlimit:10;" d="M 200.277344 410.722656 C 200.277344 414.457031 197.25 417.480469 193.519531 417.480469 C 189.789062 417.480469 186.761719 414.457031 186.761719 410.722656 C 186.761719 406.992188 189.789062 403.96875 193.519531 403.96875 C 197.25 403.96875 200.277344 406.992188 200.277344 410.722656 "/>
<path style="fill:none;stroke-width:0.708661;stroke-linecap:round;stroke-linejoin:round;stroke:rgb(18.431373%,30.980392%,30.980392%);stroke-opacity:1;stroke-miterlimit:10;" d="M 517.582031 159.777344 C 517.582031 163.507812 514.558594 166.535156 510.824219 166.535156 C 507.09375 166.535156 504.070312 163.507812 504.070312 159.777344 C 504.070312 156.046875 507.09375 153.019531 510.824219 153.019531 C 514.558594 153.019531 517.582031 156.046875 517.582031 159.777344 "/>
<path style="fill:none;stroke-width:0.708661;stroke-linecap:round;stroke-linejoin:round;stroke:rgb(18.431373%,30.980392%,30.980392%);stroke-opacity:1;stroke-miterlimit:10;" d="M 213.75 353.398438 C 213.75 357.128906 210.726562 360.15625 206.996094 360.15625 C 203.261719 360.15625 200.238281 357.128906 200.238281 353.398438 C 200.238281 349.667969 203.261719 346.644531 206.996094 346.644531 C 210.726562 346.644531 213.75 349.667969 213.75 353.398438 "/>
<path style="fill:none;stroke-width:0.708661;stroke-linecap:round;stroke-linejoin:round;stroke:rgb(18.431373%,30.980392%,30.980392%);stroke-opacity:1;stroke-miterlimit:10;" d="M 94.253906 373.347656 C 94.253906 377.078125 91.230469 380.105469 87.496094 380.105469 C 83.765625 380.105469 80.742188 377.078125 80.742188 373.347656 C 80.742188 369.617188 83.765625 366.59375 87.496094 366.59375 C 91.230469 366.59375 94.253906 369.617188 94.253906 373.347656 "/>
<path style="fill:none;stroke-width:0.708661;stroke-linecap:round;stroke-linejoin:round;stroke:rgb(18.431373%,30.980392%,30.980392%);stroke-opacity:1;stroke-miterlimit:10;" d="M 523.066406 287.839844 C 523.066406 291.570312 520.039062 294.59375 516.308594 294.59375 C 512.578125 294.59375 509.550781 291.570312 509.550781 287.839844 C 509.550781 284.109375 512.578125 281.082031 516.308594 281.082031 C 520.039062 281.082031 523.066406 284.109375 523.066406 287.839844 "/>
<path style="fill-rule:nonzero;fill:rgb(18.431373%,30.980392%,30.980392%);fill-opacity:1;stroke-width:0.708661;stroke-linecap:round;stroke-linejoin:round;stroke:rgb(18.431373%,30.980392%,30.980392%);stroke-opacity:1;stroke-miterlimit:10;" d="M 507.84375 200.261719 C 507.84375 203.992188 504.820312 207.015625 501.089844 207.015625 C 497.355469 207.015625 494.332031 203.992188 494.332031 200.261719 C 494.332031 196.527344 497.355469 193.503906 501.089844 193.503906 C 504.820312 193.503906 507.84375 196.527344 507.84375 200.261719 "/>
<path style="fill:none;stroke-width:0.708661;stroke-linecap:round;stroke-linejoin:round;stroke:rgb(18.431373%,30.980392%,30.980392%);stroke-opacity:1;stroke-miterlimit:10;" d="M 463.558594 261.75 C 463.558594 265.480469 460.535156 268.503906 456.804688 268.503906 C 453.074219 268.503906 450.046875 265.480469 450.046875 261.75 C 450.046875 258.015625 453.074219 254.992188 456.804688 254.992188 C 460.535156 254.992188 463.558594 258.015625 463.558594 261.75 "/>
<path style="fill:none;stroke-width:0.708661;stroke-linecap:round;stroke-linejoin:round;stroke:rgb(18.431373%,30.980392%,30.980392%);stroke-opacity:1;stroke-miterlimit:10;" d="M 29.988281 408.441406 C 29.988281 412.171875 26.964844 415.195312 23.234375 415.195312 C 19.503906 415.195312 16.476562 412.171875 16.476562 408.441406 C 16.476562 404.707031 19.503906 401.683594 23.234375 401.683594 C 26.964844 401.683594 29.988281 404.707031 29.988281 408.441406 "/>
<path style="fill:none;stroke-width:0.708661;stroke-linecap:round;stroke-linejoin:round;stroke:rgb(18.431373%,30.980392%,30.980392%);stroke-opacity:1;stroke-miterlimit:10;" d="M 337.167969 291.046875 C 337.167969 294.777344 334.140625 297.804688 330.410156 297.804688 C 326.679688 297.804688 323.65625 294.777344 323.65625 291.046875 C 323.65625 287.316406 326.679688 284.289062 330.410156 284.289062 C 334.140625 284.289062 337.167969 287.316406 337.167969 291.046875 "/>
<path style="fill-rule:nonzero;fill:rgb(18.431373%,30.980392%,30.980392%);fill-opacity:1;stroke-width:0.708661;stroke-linecap:round;stroke-linejoin:round;stroke:rgb(18.431373%,30.980392%,30.980392%);stroke-opacity:1;stroke-miterlimit:10;" d="M 390.808594 190.660156 C 390.808594 194.390625 387.785156 197.417969 384.050781 197.417969 C 380.320312 197.417969 377.296875 194.390625 377.296875 190.660156 C 377.296875 186.929688 380.320312 183.90625 384.050781 183.90625 C 387.785156 183.90625 390.808594 186.929688 390.808594 190.660156 "/>
<path style="fill:none;stroke-width:0.708661;stroke-linecap:round;stroke-linejoin:round;stroke:rgb(18.431373%,30.980392%,30.980392%);stroke-opacity:1;stroke-miterlimit:10;" d="M 556.898438 289.886719 C 556.898438 293.621094 553.875 296.644531 550.144531 296.644531 C 546.410156 296.644531 543.386719 293.621094 543.386719 289.886719 C 543.386719 286.15625 546.410156 283.132812 550.144531 283.132812 C 553.875 283.132812 556.898438 286.15625 556.898438 289.886719 "/>
<path style="fill:none;stroke-width:0.708661;stroke-linecap:round;stroke-linejoin:round;stroke:rgb(18.431373%,30.980392%,30.980392%);stroke-opacity:1;stroke-miterlimit:10;" d="M 423.644531 260.121094 C 423.644531 263.851562 420.621094 266.875 416.890625 266.875 C 413.15625 266.875 410.132812 263.851562 410.132812 260.121094 C 410.132812 256.386719 413.15625 253.363281 416.890625 253.363281 C 420.621094 253.363281 423.644531 256.386719 423.644531 260.121094 "/>
<path style="fill-rule:nonzero;fill:rgb(18.431373%,30.980392%,30.980392%);fill-opacity:1;stroke-width:0.708661;stroke-linecap:round;stroke-linejoin:round;stroke:rgb(18.431373%,30.980392%,30.980392%);stroke-opacity:1;stroke-miterlimit:10;" d="M 187.742188 345.921875 C 187.742188 349.652344 184.71875 352.675781 180.988281 352.675781 C 177.257812 352.675781 174.230469 349.652344 174.230469 345.921875 C 174.230469 342.191406 177.257812 339.164062 180.988281 339.164062 C 184.71875 339.164062 187.742188 342.191406 187.742188 345.921875 "/>
<path style="fill:none;stroke-width:4.267913;stroke-linecap:butt;stroke-linejoin:round;stroke:rgb(0%,0%,0%);stroke-opacity:0.298039;stroke-dasharray:17.071654,17.071654;stroke-miterlimit:10;" d="M -779.320312 717.589844 L 1523.660156 -174.570312 "/>
<path style="fill:none;stroke-width:4.267913;stroke-linecap:butt;stroke-linejoin:round;stroke:rgb(0%,0%,0%);stroke-opacity:0.298039;stroke-dasharray:17.071654,17.071654;stroke-miterlimit:10;" d="M -779.320312 668.363281 L 1523.660156 -147.664062 "/>
<path style="fill:none;stroke-width:4.267913;stroke-linecap:butt;stroke-linejoin:round;stroke:rgb(0%,0%,0%);stroke-opacity:1;stroke-dasharray:17.071654,17.071654;stroke-miterlimit:10;" d="M -779.320312 595.542969 L 1523.660156 -58.78125 "/>
</g>
</svg>
